<?xml version="1.0" standalone="no"?>
<!DOCTYPE svg PUBLIC "-//W3C//DTD SVG 1.1//EN" "http://www.w3.org/Graphics/SVG/1.1/DTD/svg11.dtd" >
<svg>
<metadata>
Created by FontForge 20090914 at Tue Jun 12 13:50:00 2018
 By www-data
(c) 1992, SMENA-SPSL Corp. 
</metadata>
<defs>
<font id="AmbassadoreType" horiz-adv-x="341" >
  <font-face 
    font-family="AmbassadoreType"
    font-weight="400"
    font-stretch="normal"
    units-per-em="1000"
    panose-1="0 0 0 0 0 0 0 0 0 0"
    ascent="800"
    descent="-200"
    x-height="464"
    cap-height="605"
    bbox="-101 -234.004 981.001 722"
    underline-thickness="50"
    underline-position="-55"
    unicode-range="U+0020-U+2219"
  />
<missing-glyph 
d="M307 208v-94l-279 152v102l279 151v-95l-179 -107l179 -109v0z" />
    <glyph glyph-name=".notdef" 
d="M307 208v-94l-279 152v102l279 151v-95l-179 -107l179 -109v0z" />
    <glyph glyph-name="space" unicode=" " horiz-adv-x="416" 
 />
    <glyph glyph-name="exclam" unicode="!" horiz-adv-x="133" 
d="M114 87v-87h-98v87h98v0zM108 144h-86l-15 461h116l-15 -461v0z" />
    <glyph glyph-name="quotedbl" unicode="&#x22;" 
d="M215 513l44 131h97l-77 -131h-64v0zM120 645h97l-77 -131h-64l44 131v0z" />
    <glyph glyph-name="numbersign" unicode="#" horiz-adv-x="445" 
d="M192 501h128l17 104h86l-17 -104h40l-9 -69h-42l-34 -217h40l-12 -71h-40l-22 -144h-87l23 144h-128l-23 -144h-83l23 144h-42l12 71h40l34 217h-40l10 69h40l16 104h86l-16 -104v0zM274 215l35 217h-128l-35 -217h128v0z" />
    <glyph glyph-name="dollar" unicode="$" horiz-adv-x="425" 
d="M256 375c48.667 -9.33301 87.501 -26.999 116.501 -52.999s44.833 -56.333 47.5 -91c0 -1.33301 0.166992 -2.83301 0.5 -4.5s0.5 -3.16699 0.5 -4.5c0 -3.33301 0.166992 -6.5 0.5 -9.5s0.5 -5.83301 0.5 -8.5c0 -38.667 -13.5 -73.834 -40.5 -105.501
s-68.833 -52.834 -125.5 -63.501v-81h-67v79h-2h-2c-0.666992 -0.666992 -1.33398 -1 -2.00098 -1h-2h-1.5h-1.5c-21.333 0 -42.166 2.33301 -62.499 7s-38.5 9.66699 -54.5 15l-35.5 14c-9.66699 4 -15.5 6.66699 -17.5 8l29 88c1.33301 -1.33301 6.5 -3.83301 15.5 -7.5
s20.167 -7.83398 33.5 -12.501l24.5 -7c9 -2.66699 17.833 -5 26.5 -7l27 -4c8.66699 -1.33301 17 -2 25 -2v173c-57.333 14 -97.833 33.333 -121.5 58s-35.5 58.334 -35.5 101.001v10c4 39.333 20.5 68.833 49.5 88.5s64.833 30.834 107.5 33.501v81h67v-81
c8.66699 0 18.5 -0.333008 29.5 -1s22.5 -2 34.5 -4c15.333 -2 30.166 -4.83301 44.499 -8.5s25.5 -8.16699 33.5 -13.5l-21 -81c-9.33301 4 -19.333 7.66699 -30 11s-21.667 6 -33 8c-10 1.33301 -20 2.5 -30 3.5s-19.333 1.5 -28 1.5v-129v0zM324.001 198.001
l-0.000976562 0.999023c0 2 -0.166992 4.16699 -0.5 6.5s-0.5 4.83301 -0.5 7.5c-3.33301 14.667 -10.666 28.334 -21.999 41.001s-26 21.667 -44 27l-1 -156c23.333 8 40.5 18.5 51.5 31.5s16.5 26.833 16.5 41.5v0zM190 504l-4.00098 0.000976562
c-1.33301 0 -2.66602 -0.333008 -3.99902 -1c-12.667 -2 -24.5 -7.5 -35.5 -16.5s-17.167 -19.5 -18.5 -31.5v-1v-1v-1v0c-0.666992 -0.666992 -1 -1.33398 -1 -2.00098v-1v-3.5c0 -1 0.333008 -2.16699 1 -3.5c1.33301 -8.66699 6.5 -17.167 15.5 -25.5
s24.5 -15.5 46.5 -21.5v109v0z" />
    <glyph glyph-name="percent" unicode="%" horiz-adv-x="690" 
d="M514 -11c-40.667 0.666992 -78 13.833 -112 39.5s-51 65.167 -51 118.5s17 93.333 51 120s71.333 40 112 40s77.834 -13.333 111.501 -40s50.5 -66.667 50.5 -120s-16.833 -92.833 -50.5 -118.5s-70.834 -38.5 -111.501 -38.5v-1zM514 52.999
c29.333 0 50.666 9 63.999 27s20 40.333 20 67c0 26 -7.66699 48 -23 66s-35.666 27 -60.999 27s-45.833 -9 -61.5 -27s-23.5 -40 -23.5 -66c0 -26.667 6.83301 -49 20.5 -67s35.167 -27 64.5 -27v0zM477 604.999h82l-350 -605h-82l350 605v0zM172 610.999l1.5 0.000976562
h1.5c40 -0.666992 76.667 -14.334 110 -41.001s50 -66.334 50 -119.001s-16.667 -92.167 -50 -118.5s-70 -39.833 -110 -40.5h-1.5h-1.5c-40.667 0 -78 13.333 -112 40s-51 66.334 -51 119.001c0 53.333 17 93.333 51 120s71.333 40 112 40v0zM257 451
c0 26.667 -7.33301 49 -22 67s-35.667 27 -63 27c-26.667 0 -47.5 -9 -62.5 -27s-22.5 -40.333 -22.5 -67s8 -48.834 24 -66.501s36.333 -26.5 61 -26.5c25.333 0 45.833 8.83301 61.5 26.5s23.5 39.834 23.5 66.501v0z" />
    <glyph glyph-name="ampersand" unicode="&#x26;" horiz-adv-x="653" 
d="M517 381c7.33301 -9.33301 13.5 -19.1758 18.5 -29.5088s8.83301 -20.833 11.5 -31.5c1.33301 -7.33301 2.5 -14.166 3.5 -20.499s1.5 -12.833 1.5 -19.5v-4v-4c-0.666992 -2 -1 -3.66699 -1 -5v-4c-2 -32.667 -12.167 -62 -30.5 -88s-44.5 -51 -78.5 -75
c6 -7.33301 12 -13.333 18 -18s12 -8 18 -10c3.33301 -2 7 -3.33301 11 -4s8 -1 12 -1s8.16699 0.5 12.5 1.5s8.83301 1.83301 13.5 2.5c6 3.33301 11.833 7.33301 17.5 12s10.5 9.66699 14.5 15c4 4.66699 7.33301 9.33398 10 14.001s4.66699 8.66699 6 12
c4 -2 8.66699 -3.83301 14 -5.5s10.666 -3.16699 15.999 -4.5l26 -5.5c8 -1.66699 14 -2.83398 18 -3.50098l-21.5 -30c-7 -9.33301 -14.167 -17.666 -21.5 -24.999c-16 -17.333 -32 -30.333 -48 -39s-33 -13.334 -51 -14.001l-14 -1
c-23.333 0.666992 -45.666 4.33398 -66.999 11.001s-41.333 19.334 -60 38.001c-15.333 -12.667 -34.166 -23.167 -56.499 -31.5s-45.5 -13.833 -69.5 -16.5c-8 -1.33301 -16 -2.33301 -24 -3s-15.667 -1 -23 -1l-3 -1c-21.333 0.666992 -41.166 5.16699 -59.499 13.5
s-34.166 17.5 -47.499 27.5c-2.66699 2.66699 -5.33398 5.16699 -8.00098 7.5s-5.33398 4.5 -8.00098 6.5c-13.333 12.667 -24 26.834 -32 42.501s-14.333 32.5 -19 50.5c-2 7.33301 -3.5 14.333 -4.5 21s-1.5 13 -1.5 19c0 16 2.66699 31 8 45s11.333 27.667 18 41
c2.66699 6 8.5 14.833 17.5 26.5s19.833 23.834 32.5 36.501l24.5 22c8.33301 7.33301 16.833 14.333 25.5 21c4.66699 3.33301 9.16699 6.33301 13.5 9s8.5 5 12.5 7c-6 18.667 -10.667 36.834 -14 54.501s-5 34.5 -5 50.5c0 19.333 2.16699 37.666 6.5 54.999
s9.83301 32 16.5 44c7.33301 12 18.166 22.167 32.499 30.5s29.5 13.833 45.5 16.5c4 0.666992 7.83301 1.16699 11.5 1.5s7.16699 0.5 10.5 0.5h5.5h5.5c2 0 3.83301 -0.166992 5.5 -0.5s3.5 -0.833008 5.5 -1.5c21.333 -4.66699 40.166 -13.167 56.499 -25.5
s27.5 -29.166 33.5 -50.499c1.33301 -4.66699 2.5 -10 3.5 -16s1.83301 -12 2.5 -18v-4.5v-4.5c0 -9.33301 -0.833008 -19 -2.5 -29s-4.5 -20.333 -8.5 -31l-4 -10c-1.33301 -3.33301 -3 -6.66602 -5 -9.99902c-1.33301 -2 -8.66602 -11 -21.999 -27
s-38.666 -36.667 -75.999 -62c1.33301 -3.33301 2.5 -6.66602 3.5 -9.99902s2.16699 -6.66602 3.5 -9.99902c12 -32.667 27.833 -64.667 47.5 -96s40.167 -59.333 61.5 -84c20 14.667 36.667 28.667 50 42s23.666 26.333 30.999 39c3.33301 6.66699 5.83301 13.167 7.5 19.5
s2.5 12.833 2.5 19.5c0 4.66699 -0.5 9.5 -1.5 14.5s-2.16699 9.83301 -3.5 14.5h-79v81h128v0zM188 306.99c-0.666992 -0.666992 -1.50293 -1.33496 -2.50293 -2.00195s-2.16699 -1.33398 -3.5 -2.00098c-20 -14.667 -38.5 -32.5 -55.5 -53.5s-26.5 -42.833 -28.5 -65.5v-3
v-4c0 -3.33301 0.333008 -6.66602 1 -9.99902l2 -10l4 -10c1.33301 -3.33301 3 -6.66602 5 -9.99902c9.33301 -17.333 22.333 -30.833 39 -40.5s35.334 -14.5 56.001 -14.5c14.667 0 30.834 2.5 48.501 7.5s35.834 12.5 54.501 22.5c-7.33301 6.66699 -15.5 15.5 -24.5 26.5
s-18.167 23.167 -27.5 36.5c-11.333 16.667 -22.333 34.834 -33 54.501s-20 39.5 -28 59.5c-1.33301 3.33301 -2.5 6.5 -3.5 9.5s-2.16699 5.83301 -3.5 8.5v0zM299.997 494.989c0 1.33301 0.166992 2.66895 0.5 4.00195s0.5 3 0.5 5c0.666992 1.33301 1 2.66602 1 3.99902
v4c0 7.33301 -1.16699 14.666 -3.5 21.999s-5.5 14 -9.5 20c-4 3.33301 -8.16699 6.16602 -12.5 8.49902s-8.83301 3.5 -13.5 3.5h-2.5c-1 0 -1.83301 -0.333008 -2.5 -1c-5.33301 -0.666992 -10.333 -3.16699 -15 -7.5s-8.66699 -9.83301 -12 -16.5
c-2 -4 -3.5 -8.83301 -4.5 -14.5s-1.5 -11.5 -1.5 -17.5v-2.5v-3.5v-7.5c0 -2.33301 0.333008 -4.83301 1 -7.5c0 -7.33301 0.5 -14.333 1.5 -21s2.16699 -12.667 3.5 -18c0.666992 -6 1.5 -11 2.5 -15s1.83301 -6.66699 2.5 -8c13.333 10 25.833 20.833 37.5 32.5
s20.5 23.834 26.5 36.501v0z" />
    <glyph glyph-name="quotesingle" unicode="'" horiz-adv-x="124" 
d="M56 644h97l-77 -131h-64l44 131v0z" />
    <glyph glyph-name="parenleft" unicode="(" horiz-adv-x="180" 
d="M96 -53c-28.667 47.333 -50.502 99.499 -65.502 156.499s-22.5 114.833 -22.5 173.5v13.5v12.5c2.66699 54.667 11.334 108.5 26.001 161.5s35.334 101.5 62.001 145.5h81c-25.333 -60 -44.5 -117.167 -57.5 -171.5s-19.5 -108.166 -19.5 -161.499
c0 -52.667 6.5 -106.167 19.5 -160.5s32.167 -110.5 57.5 -168.5l-81 -1v0zM95.998 -53.001c-28.667 47.333 -50.502 99.499 -65.502 156.499s-22.5 114.833 -22.5 173.5v13.5v12.5c2.66699 54.667 11.334 108.5 26.001 161.5s35.334 101.5 62.001 145.5h81
c-25.333 -60 -44.5 -117.167 -57.5 -171.5s-19.5 -108.166 -19.5 -161.499c0 -52.667 6.5 -106.167 19.5 -160.5s32.167 -110.5 57.5 -168.5l-81 -1v0zM176.996 -53.002l-81.002 -0.000976562c-28.667 47.333 -50.5 99.5 -65.5 156.5s-22.5 114.833 -22.5 173.5v13.5v12.5
c2.66699 54.667 11.334 108.5 26.001 161.5s35.334 101.5 62.001 145.5h81c-25.333 -60 -44.5 -117.167 -57.5 -171.5s-19.5 -108.166 -19.5 -161.499c0 -52.667 6.5 -106.167 19.5 -160.5s32.167 -110.5 57.5 -168.5v-1z" />
    <glyph glyph-name="parenright" unicode=")" horiz-adv-x="180" 
d="M81 -53l-81.002 0.000976562c25.333 58.667 44.333 115.167 57 169.5s19 107.833 19 160.5c0 53.333 -6.33301 107.166 -19 161.499s-31.667 111.5 -57 171.5h81c26.667 -44 47.334 -92.5 62.001 -145.5s23 -106.833 25 -161.5v-12.5v-13.5
c0 -58.667 -7.16699 -116.5 -21.5 -173.5s-36.166 -108.833 -65.499 -155.5v-1z" />
    <glyph glyph-name="asterisk" unicode="*" horiz-adv-x="388" 
d="M193 278h-40l15 153l-123 -104l-45 49l150 89l-150 89l45 49l123 -104l-15 153h80l-15 -154l123 105l45 -49l-148 -89l148 -89l-45 -49l-122 105l14 -154h-40v0z" />
    <glyph glyph-name="plus" unicode="+" horiz-adv-x="407" 
d="M14 383h146v144h69v-144h161v-69h-161v-161h-69v161h-146v69v0z" />
    <glyph glyph-name="comma" unicode="," horiz-adv-x="151" 
d="M48 86h96l-77 -131h-63l44 131v0z" />
    <glyph glyph-name="hyphen" unicode="-" horiz-adv-x="463" 
d="M42 383h376v-69h-376v69v0z" />
    <glyph glyph-name="period" unicode="." horiz-adv-x="189" 
d="M141 0h-97v86h97v-86v0z" />
    <glyph glyph-name="slash" unicode="/" horiz-adv-x="312" 
d="M248 605h89l-278 -691h-88l277 691v0z" />
    <glyph glyph-name="zero" unicode="0" horiz-adv-x="642" 
d="M619 297c0 -102 -31.5 -178.169 -94.5 -228.502s-132.167 -75.5 -207.5 -75.5h-1.5h-1.5c-74.667 0.666992 -143.334 26 -206.001 76s-94 125.333 -94 226l1 2l-1 2c0 100.667 31.333 176.334 94 227.001s131.334 76.334 206.001 77.001h1.5h1.5
c75.333 0 144.5 -25.5 207.5 -76.5s94.5 -127.5 94.5 -229.5v0zM316 516.998c-48.667 -0.666992 -93 -19.332 -133 -55.999s-60 -91.334 -60 -164.001s20 -127.167 60 -163.5s84.333 -54.833 133 -55.5l1 -1h2.5h3.5c46.667 1.33301 89.667 20.5 129 57.5
s59 91.167 59 162.5s-19.667 125.5 -59 162.5s-82.333 56.167 -129 57.5h-3.5h-2.5h-1v0z" />
    <glyph glyph-name="one" unicode="1" 
d="M190 0v504l-180 -84v83l205 96h72v-599h-97v0z" />
    <glyph glyph-name="two" unicode="2" horiz-adv-x="530" 
d="M37 74l173.497 118.502c50.333 35 89.833 69.167 118.5 102.5c16 18 28.167 36.333 36.5 55s12.5 38 12.5 58c0 38 -15 68 -45 90s-67.333 33 -112 33c-23.333 0 -48.166 -3.5 -74.499 -10.5s-53.166 -17.5 -80.499 -31.5v88c18.667 7.33301 38.167 13.5 58.5 18.5
s40.833 8.5 61.5 10.5c9.33301 1.33301 18.333 2.16602 27 2.49902s17.334 0.5 26.001 0.5c64.667 0 121.834 -15.833 171.501 -47.5s74.5 -83.167 74.5 -154.5v-1c0 -30 -7.33301 -58.333 -22 -85s-35 -53.334 -61 -80.001c-24.667 -25.333 -53.334 -50.833 -86.001 -76.5
l-106 -81.5h290v-83h-463v74v0z" />
    <glyph glyph-name="three" unicode="3" horiz-adv-x="501" 
d="M484 207c0 -72.667 -26.002 -125.331 -78.002 -157.998s-109 -51 -171 -55c-6.66699 -0.666992 -13.167 -1.16699 -19.5 -1.5s-12.833 -0.5 -19.5 -0.5c-36 0 -70 3.33301 -102 10s-57.667 15.667 -77 27v89c36.667 -14.667 70.834 -25.834 102.501 -33.501
s60.5 -11.5 86.5 -11.5c54.667 0 97 13 127 39s45 57.667 45 95c0 43.333 -17.167 73.666 -51.5 90.999s-76.166 26 -125.499 26c-12 0 -24.5 -0.5 -37.5 -1.5s-26.167 -2.16699 -39.5 -3.5v66l178 132h-265v82h403v-77l-167 -124c61.333 0 111.833 -17.667 151.5 -53
s59.5 -81.333 59.5 -138v0z" />
    <glyph glyph-name="four" unicode="4" horiz-adv-x="558" 
d="M5 297l329 302h99v-302h118v-83h-118v-214h-96v214h-332v83v0zM336 486l-200 -189h200v189v0z" />
    <glyph glyph-name="five" unicode="5" horiz-adv-x="510" 
d="M56 332l66 266.998h314v-82h-247l-20 -85c8 0.666992 15.833 1 23.5 1h21.5c94 0 164.167 -18.5 210.5 -55.5s69.5 -88.833 69.5 -155.5c0 -80 -27.833 -137.167 -83.5 -171.5s-116.834 -53.166 -183.501 -56.499c-4 -0.666992 -8 -1 -12 -1h-12
c-36 0 -71 3.66699 -105 11s-62.667 17.333 -86 30v85l17.5 -7.5l16.5 -6.5c26 -9.33301 51.833 -16.5 77.5 -21.5s49.834 -7.5 72.501 -7.5c55.333 0 101.833 12.833 139.5 38.5s56.5 61.834 56.5 108.501c0 35.333 -17.667 65.5 -53 90.5s-84.333 37.5 -147 37.5
c-20 0 -41.333 -1.66699 -64 -5s-46.667 -8 -72 -14v0z" />
    <glyph glyph-name="six" unicode="6" horiz-adv-x="558" 
d="M139 380c22 15.333 47.5039 27 76.5039 35s58.833 12 89.5 12h4.5h4.5c56 -1.33301 107.5 -18.166 154.5 -50.499s71.167 -83.833 72.5 -154.5c0 -74 -26.333 -130 -79 -168s-114.334 -57 -185.001 -57c-84.667 0 -147.834 28 -189.501 84s-62.5 123.333 -62.5 202
c0 9.33301 0.5 18.666 1.5 27.999s1.83301 18.666 2.5 27.999c5.33301 46.667 18.166 88.667 38.499 126s48.833 69.333 85.5 96c23.333 15.333 50.833 27 82.5 35s66.834 12 105.501 12h20c15.333 -0.666992 31.166 -2 47.499 -4s33.166 -5 50.499 -9v-86
c-4 0.666992 -8 1.5 -12 2.5s-7.66699 1.83301 -11 2.5c-16 3.33301 -31.667 5.83301 -47 7.5s-30.333 2.5 -45 2.5c-45.333 0 -86.333 -10.667 -123 -32s-64 -58.666 -82 -111.999v0zM296.004 342c-12 0 -24.165 -0.999023 -36.498 -2.99902s-24.833 -5 -37.5 -9
c-16.667 -4.66699 -33.5 -10.834 -50.5 -18.501s-33.167 -16.167 -48.5 -25.5c0 -2 -0.166992 -4 -0.5 -6s-0.5 -4 -0.5 -6c0 -2.66699 -0.166992 -5 -0.5 -7s-0.5 -4 -0.5 -6c0 -58.667 15.833 -102.5 47.5 -131.5s66.5 -45.167 104.5 -48.5h4h4
c1.33301 -0.666992 2.66602 -1 3.99902 -1h4c36.667 0 70 11.167 100 33.5s45 53.5 45 93.5c0 48 -12.833 82.5 -38.5 103.5s-56.834 31.5 -93.501 31.5h-6v0z" />
    <glyph glyph-name="seven" unicode="7" horiz-adv-x="463" 
d="M449 514l-322 -514h-110l322 517h-362v83h472v-86v0z" />
    <glyph glyph-name="eight" unicode="8" horiz-adv-x="548" 
d="M271 -8c-87.333 0.666992 -151.168 19.333 -191.501 56s-62.166 77 -65.499 121c-0.666992 2.66699 -1 5.16699 -1 7.5v6.5c0 37.333 10.667 72.166 32 104.499s50 53.833 86 64.5c-17.333 9.33301 -30.833 22.833 -40.5 40.5s-14.5 36.5 -14.5 56.5
c0 3.33301 0.166992 6.83301 0.5 10.5s0.833008 7.5 1.5 11.5c5.33301 34 23.833 65 55.5 93s77.5 42 137.5 42s105.833 -14 137.5 -42s50.167 -59 55.5 -93c0.666992 -4 1.16699 -7.83301 1.5 -11.5s0.5 -7.16699 0.5 -10.5c0 -20 -4.83301 -38.833 -14.5 -56.5
s-23.167 -31.167 -40.5 -40.5c36 -10.667 64.5 -32.167 85.5 -64.5s31.5 -67.166 31.5 -104.499v-6.5c0 -2.33301 -0.333008 -4.83301 -1 -7.5c-3.33301 -44 -25 -84.333 -65 -121s-103.667 -55 -191 -55v-1zM270.998 292.999c-8 0 -17.333 -0.666992 -28 -2
s-21.667 -3.33301 -33 -6c-22 -6.66699 -42.333 -17.667 -61 -33s-28 -37.666 -28 -66.999c0 -28.667 9.33301 -50.834 28 -66.501s39 -26.5 61 -32.5c11.333 -3.33301 22.333 -5.66602 33 -6.99902s20 -2 28 -2c8.66699 0 18.167 0.666992 28.5 2
s21.166 3.66602 32.499 6.99902c22 6 42.333 16.833 61 32.5s28 37.834 28 66.501c0 29.333 -9.33301 51.666 -28 66.999s-39 26.333 -61 33c-11.333 2.66699 -22.166 4.66699 -32.499 6s-19.833 2 -28.5 2v0zM361.998 448.999c0 19.333 -7.66699 36.666 -23 51.999
s-38 23 -68 23s-52.667 -7.66699 -68 -23s-23 -32.666 -23 -51.999c0 -20 7.66699 -37.5 23 -52.5s38 -22.5 68 -22.5s52.667 7.5 68 22.5s23 32.5 23 52.5v0z" />
    <glyph glyph-name="nine" unicode="9" horiz-adv-x="539" 
d="M25 111c31.333 -12.667 60.999 -22.167 88.999 -28.5s53.333 -9.5 76 -9.5c61.333 0 109.333 15.667 144 47s57.667 66 69 104c2 7.33301 3.66699 14.833 5 22.5s2.33301 15.167 3 22.5c-11.333 -6 -23 -11.5 -35 -16.5s-24 -9.16699 -36 -12.5
c-18.667 -6.66699 -37.5 -11.5 -56.5 -14.5s-37.167 -4.5 -54.5 -4.5c-58.667 0 -109 15.667 -151 47s-63 77 -63 137c1.33301 63.333 26 112.833 74 148.5s102 53.5 162 53.5c6 0 12 -0.166992 18 -0.5s11.667 -0.833008 17 -1.5
c60.667 -7.33301 113.334 -32.333 158.001 -75s68 -114 70 -214c0 -81.333 -23.833 -155.833 -71.5 -223.5s-126.167 -101.5 -235.5 -101.5c-26.667 0 -55.167 2.16699 -85.5 6.5s-62.5 11.833 -96.5 22.5v91v0zM414.999 364c0 44.667 -13.5 80.501 -40.5 107.501
s-56.833 44.5 -89.5 52.5c-6.66699 2 -13.334 3.33301 -20.001 4s-13 1 -19 1c-32.667 0 -62.334 -12.5 -89.001 -37.5s-40 -52.833 -40 -83.5h1c0 -36.667 12 -63.834 36 -81.501s53.333 -26.5 88 -26.5c12 0 24.333 1 37 3s25.334 5 38.001 9
c17.333 5.33301 34.333 12.333 51 21s32.334 19 47.001 31v0z" />
    <glyph glyph-name="colon" unicode=":" horiz-adv-x="189" 
d="M141 87v-87h-97v87h97v0zM44 317h97v-88h-97v88v0z" />
    <glyph glyph-name="semicolon" unicode=";" horiz-adv-x="189" 
d="M44 86h97l-78 -131h-63l44 131v0zM44 229v88h97v-88h-97v0z" />
    <glyph glyph-name="less" unicode="&#x3c;" horiz-adv-x="501" 
d="M483 40l-462 226v102l462 224v-105l-362 -170l362 -172v-105v0z" />
    <glyph glyph-name="equal" unicode="=" horiz-adv-x="473" 
d="M51 282h376v-70h-376v70v0zM51 374v69h376v-69h-376v0z" />
    <glyph glyph-name="greater" unicode="&#x3e;" horiz-adv-x="510" 
d="M18 40v105l361 172l-361 170v105l462 -224v-102l-462 -226v0z" />
    <glyph glyph-name="question" unicode="?" horiz-adv-x="435" 
d="M124 0v86h95v-86h-95v0zM124 242c60 7.33301 105.5 24.1689 136.5 50.502s49.167 54.5 54.5 84.5c0.666992 3.33301 1.16699 6.5 1.5 9.5s0.5 6.16699 0.5 9.5c0 31.333 -13.167 59.833 -39.5 85.5s-63.833 38.5 -112.5 38.5c-21.333 0 -45 -3.16699 -71 -9.5
s-53.667 -16.5 -83 -30.5v86c31.333 11.333 61.166 19.5 89.499 24.5s54.5 7.5 78.5 7.5c77.333 0 136 -20.833 176 -62.5s60 -87.834 60 -138.501v-5.5v-5.5c-2.66699 -43.333 -20.167 -83.833 -52.5 -121.5s-80.166 -61.834 -143.499 -72.501v-56h-95v106v0z" />
    <glyph glyph-name="at" unicode="@" horiz-adv-x="595" 
d="M473 152l87.9971 -28.9971c-30 -34.667 -63.5 -64.5 -100.5 -89.5s-90.5 -37.5 -160.5 -37.5l-14 -1c-76.667 1.33301 -144.667 29.166 -204 83.499s-89 130.5 -89 228.5v12c0 4 0.333008 8.33301 1 13c0 4 0.166992 8 0.5 12s0.833008 8 1.5 12
c8.66699 77.333 33.334 136.666 74.001 177.999s84.334 69.666 131.001 84.999c17.333 6 34.666 10.333 51.999 13s33.666 4 48.999 4h2c47.333 0 88.5 -8 123.5 -24s63.167 -33.667 84.5 -53c2.66699 -2 5 -4 7 -6l6 -6c13.333 -12.667 25.333 -31 36 -55
s17.334 -51.333 20.001 -82v-18c0 -5.33301 -0.166992 -10.5 -0.5 -15.5s-0.833008 -10.167 -1.5 -15.5c-3.33301 -23.333 -10.333 -45.5 -21 -66.5s-25 -37.167 -43 -48.5c-10.667 -6.66699 -21.167 -11.834 -31.5 -15.501s-20.166 -5.5 -29.499 -5.5
c-16 0 -30.5 4.5 -43.5 13.5s-23.5 19.833 -31.5 32.5c-6.66699 -12 -20.167 -22.833 -40.5 -32.5s-42.833 -14.5 -67.5 -14.5h-6.5c-2.33301 0 -4.5 0.333008 -6.5 1c-13.333 1.33301 -26.5 4.66602 -39.5 9.99902s-25.167 13 -36.5 23
c-8.66699 8.66699 -15.5 18.667 -20.5 30s-7.5 23.666 -7.5 36.999c0 9.33301 1.33301 19.5 4 30.5s6 21.833 10 32.5l3.5 7l3.5 7c12.667 21.333 26 37 40 47s33.333 18 58 24c2 0.666992 4.16699 1.16699 6.5 1.5s4.5 0.5 6.5 0.5c4.66699 0.666992 9.16699 1 13.5 1h12.5
c22 0 42.5 -4.16699 61.5 -12.5s37.833 -21.833 56.5 -40.5l7.5 -7.5c2.33301 -2.33301 4.5 -4.83301 6.5 -7.5l-24 -79c1.33301 -14 5 -23.833 11 -29.5s13.333 -8.5 22 -8.5h2c0.666992 0 1.33398 0.333008 2.00098 1h1h2c14 1.33301 25.833 11 35.5 29s14.5 40 14.5 66
v21c-2 20 -7.66699 38.333 -17 55s-20 30.334 -32 41.001c-17.333 16.667 -38.5 30 -63.5 40s-55.5 15.667 -91.5 17h-8c-9.33301 0 -19 -1 -29 -3s-20 -4.66699 -30 -8c-36 -14 -69.5 -39.167 -100.5 -75.5s-49.167 -83.166 -54.5 -140.499
c-0.666992 -4 -1 -8.16699 -1 -12.5v-13.5c0 -61.333 19 -114.166 57 -158.499s89.333 -68.833 154 -73.5h2.5h2.5c0.666992 -0.666992 1.5 -1 2.5 -1h2.5c40 0 72.5 6.16699 97.5 18.5s44.167 25.833 57.5 40.5c2.66699 2.66699 5.16699 5.66699 7.5 9l6.5 9v0z
M318.997 425.003l-6.00195 0.00195312c-19.333 0 -34.666 -5 -45.999 -15s-21.666 -22 -30.999 -36c-1.33301 -2.66699 -2.5 -5.33398 -3.5 -8.00098s-1.83301 -5.33398 -2.5 -8.00098c-1.33301 -4 -2.33301 -8.16699 -3 -12.5s-1 -8.16602 -1 -11.499
c0 -12.667 3.66699 -23.5 11 -32.5s17 -14.167 29 -15.5h1.5h1.5c0.666992 -0.666992 1.16699 -1 1.5 -1h1.5c20.667 0 37.5 4.66699 50.5 14s25.167 23.666 36.5 42.999l12 41c-0.666992 1.33301 -1.16699 2.5 -1.5 3.5s-0.833008 2.16699 -1.5 3.5
c-4.66699 8 -11.167 15.5 -19.5 22.5s-16.833 11.167 -25.5 12.5h-2h-2v0z" />
    <glyph glyph-name="A" unicode="A" horiz-adv-x="642" 
d="M124 299h-65v84h102l88 222h144l241 -605h-120l-113 299h-172l-116 -299h-108l119 299v0zM263 383h108l-54 136l-54 -136v0z" />
    <glyph glyph-name="B" unicode="B" horiz-adv-x="615" 
d="M47 0l-0.000976562 605.001h304c48.667 0 86.834 -14.167 114.501 -42.5s41.5 -59.5 41.5 -93.5v-5.5v-4.5c-2 -16.667 -7.33301 -33.167 -16 -49.5s-21.667 -30.833 -39 -43.5c43.333 -8 77.5 -27.167 102.5 -57.5s39.167 -62.5 42.5 -96.5
c0.666992 -2.66699 1 -5.5 1 -8.5v-8.5c0 -50.667 -17.5 -95.834 -52.5 -135.501s-80.833 -59.5 -137.5 -59.5h-361v0zM153.999 299.001l-0.000976562 -215.001h219c35.333 0 63.833 11.333 85.5 34s32.834 47.334 33.501 74.001v1.5v1.5v1
c0 26.667 -10.833 50.5 -32.5 71.5s-51.167 31.5 -88.5 31.5h-217v0zM153.998 520v-137.001h173c26 0 45.667 6.83301 59 20.5s20.333 28.834 21 45.501v1.5v1.5c0 17.333 -6.5 33 -19.5 47s-33.167 21 -60.5 21h-173v0z" />
    <glyph glyph-name="C" unicode="C" horiz-adv-x="595" 
d="M124 304c1.33301 -60.667 23.835 -111.831 67.502 -153.498s95.834 -62.5 156.501 -62.5c16 0 32.5 1.66699 49.5 5s34.167 8.66602 51.5 15.999c12 5.33301 24.167 11.666 36.5 18.999s24.5 15.666 36.5 24.999l58 -73c-28.667 -26 -60.334 -46.167 -95.001 -60.5
s-70.334 -23.5 -107.001 -27.5c-6 -0.666992 -12.333 -1.16699 -19 -1.5s-13.334 -0.5 -20.001 -0.5c-82.667 0 -157.334 26.833 -224.001 80.5s-100.667 131.167 -102 232.5c0 101.333 32.5 179.833 97.5 235.5s139.833 83.5 224.5 83.5c10.667 0 21.667 -0.5 33 -1.5
s22.333 -2.5 33 -4.5c30.667 -5.33301 61 -14.5 91 -27.5s58.667 -30.167 86 -51.5l-46 -75c-11.333 8.66699 -22.666 16.5 -33.999 23.5s-23 13.167 -35 18.5c-20 9.33301 -40 16.333 -60 21s-39.333 7 -58 7c-61.333 0 -113.5 -21.167 -156.5 -63.5
s-64.5 -97.166 -64.5 -164.499v0z" />
    <glyph glyph-name="D" unicode="D" horiz-adv-x="671" 
d="M343 0l-296 0.000976562v605h273c104.667 0 185.167 -31 241.5 -93s84.5 -130.333 84.5 -205v-1c-1.33301 -82.667 -24.333 -154.334 -69 -215.001s-122.667 -91 -234 -91v0zM317 84.001c83.333 0 140.832 21.667 172.499 65s47.834 94.333 48.501 153
c0 54.667 -17.333 104.667 -52 150s-91.667 68 -171 68h-161v-436h163v0z" />
    <glyph glyph-name="E" unicode="E" horiz-adv-x="501" 
d="M46 0v605h414v-85h-306v-137h326v-84h-326v-215h326v-84h-434v0z" />
    <glyph glyph-name="F" unicode="F" horiz-adv-x="473" 
d="M46 605h385v-85h-277v-137h301v-84h-301v-299h-108v605v0z" />
    <glyph glyph-name="G" unicode="G" horiz-adv-x="624" 
d="M493 498c-24.667 10.667 -49.166 18.5 -73.499 23.5s-47.166 7.5 -68.499 7.5c-67.333 0 -122.5 -21.333 -165.5 -64s-64.5 -98.667 -64.5 -168c0 -54.667 14 -100.667 42 -138s71 -62.666 129 -75.999c4.66699 -0.666992 9.5 -1.5 14.5 -2.5s10.167 -1.83301 15.5 -2.5
c2.66699 -0.666992 5.16699 -1 7.5 -1h7.5c14.667 0 29.667 1.5 45 4.5s30.666 7.16699 45.999 12.5c10 4 20.167 8.5 30.5 13.5s20.5 10.833 30.5 17.5v174h-170v84h277l1 -290l-2.5 -2.5l-2.5 -2.5c-17.333 -16.667 -37.833 -32.667 -61.5 -48s-49.834 -27 -78.501 -35
c-8 -2 -15.833 -3.83301 -23.5 -5.5s-15.5 -3.16699 -23.5 -4.5c-12 -2 -24 -3.5 -36 -4.5s-23.667 -1.5 -35 -1.5c-84.667 0 -159.5 26.167 -224.5 78.5s-97.5 128.833 -97.5 229.5c0 97.333 32.333 174.666 97 231.999s142 86 232 86c21.333 0 43.333 -1.83301 66 -5.5
s45.667 -9.16699 69 -16.5c8 -2.66699 15.833 -5.5 23.5 -8.5s15.167 -6.16699 22.5 -9.5l-29 -77v0z" />
    <glyph glyph-name="H" unicode="H" horiz-adv-x="605" 
d="M551 605v-605h-107v299h-277v-299h-108v299h-48v84h48v222h108v-222h277v222h107v0z" />
    <glyph glyph-name="I" unicode="I" horiz-adv-x="208" 
d="M156 0h-108v605h108v-605v0z" />
    <glyph glyph-name="J" unicode="J" horiz-adv-x="359" 
d="M29 113c4.66699 -4 9.33301 -7.50098 14 -10.501s9.66699 -5.83301 15 -8.5c12 -6.66699 23.833 -11.667 35.5 -15s22.834 -5 33.501 -5c22 0 40.833 6.66699 56.5 20s23.834 32.333 24.501 57v454h108v-462c0 -50.667 -19 -88.167 -57 -112.5s-79.667 -36.5 -125 -36.5
h-5.5h-5.5c-22.667 1.33301 -44.834 5.33301 -66.501 12s-40.834 16.334 -57.501 29.001l30 78v0z" />
    <glyph glyph-name="K" unicode="K" horiz-adv-x="595" 
d="M473 -9l-166 258c-12 18.667 -24.333 31.667 -37 39s-27.667 11 -45 11h-70v-299h-108v605h108v-223l220 223h126l-223 -225c15.333 -2 29.333 -5.16699 42 -9.5s24.667 -11.833 36 -22.5l6.5 -6.5c2.33301 -2.33301 4.5 -4.83301 6.5 -7.5l223 -333l-119 -10v0z" />
    <glyph glyph-name="L" unicode="L" horiz-adv-x="454" 
d="M445 84v-84h-399v605h108v-521h291v0z" />
    <glyph glyph-name="M" unicode="M" horiz-adv-x="766" 
d="M705 0h-107v454l-187 -269h-57l-186 269v-454h-108v605h116l208 -293l203 293h118v-605v0z" />
    <glyph glyph-name="N" unicode="N" horiz-adv-x="605" 
d="M48 605h109l286 -300v300h108v-605h-108v164l-288 303v-467h-107v605v0z" />
    <glyph glyph-name="O" unicode="O" horiz-adv-x="671" 
d="M657 303c0 -98.667 -31.668 -175.168 -95.001 -229.501s-138.666 -81.5 -225.999 -81.5c-86.667 0 -162.167 27 -226.5 81s-96.5 130.333 -96.5 229s32 175.334 96 230.001s139.333 82 226 82c87.333 0 162.833 -27.167 226.5 -81.5s95.5 -130.833 95.5 -229.5v0z
M548.999 300.999c0 70 -21.501 124.667 -64.501 164s-93.167 59 -150.5 59c-56 0 -105.667 -19.5 -149 -58.5s-65 -93.167 -65 -162.5l1 -2c0.666992 -70.667 22.5 -125.167 65.5 -163.5s92.833 -57.5 149.5 -57.5s106.334 19.167 149.001 57.5s64 92.833 64 163.5v0z" />
    <glyph glyph-name="P" unicode="P" horiz-adv-x="530" 
d="M47 0l0.000976562 605h246c75.333 0 131.666 -16.167 168.999 -48.5s56.333 -73.5 57 -123.5c0 -42 -17 -80.5 -51 -115.5s-85.333 -52.5 -154 -52.5h-160v-265h-107v0zM154.001 520v-171h155c34 0 59.667 8.66699 77 26s26 36.333 26 57c0 22 -9.33301 42.167 -28 60.5
s-47 27.5 -85 27.5h-145v0z" />
    <glyph glyph-name="Q" unicode="Q" horiz-adv-x="671" 
d="M646 23l-39.998 -81.999c-4.66699 2.66699 -9.83398 4.83398 -15.501 6.50098s-11.5 3.5 -17.5 5.5c-17.333 4.66699 -36.5 9.5 -57.5 14.5s-42.5 9.16699 -64.5 12.5c-18.667 3.33301 -37.334 6 -56.001 8s-36 3 -52 3h-1.5h-1.5h-0.5
c-0.333008 0 -0.5 -0.333008 -0.5 -1h-2h-1c-86.667 0 -162.167 27 -226.5 81s-96.833 130.333 -97.5 229c0 97.333 31.833 174.166 95.5 230.499s138.834 84.5 225.501 84.5c87.333 0 162.833 -28.333 226.5 -85s95.5 -133.334 95.5 -230.001
c0 -66 -13.333 -117.167 -40 -153.5s-58.334 -66.5 -95.001 -90.5l126 -33v0zM547.002 300.001c0 58 -19 110.5 -57 157.5s-90.333 70.833 -157 71.5c-66.667 -0.666992 -118.834 -24.5 -156.501 -71.5s-56.5 -99.5 -56.5 -157.5l-1 -3c0 -59.333 19.167 -111 57.5 -155
s90.833 -66 157.5 -66c64.667 0 116.334 22.167 155.001 66.5s58 96.833 58 157.5v0z" />
    <glyph glyph-name="R" unicode="R" horiz-adv-x="577" 
d="M293 605c63.333 0 110.001 -14.667 140.001 -44s45.667 -61.333 47 -96v-3.5v-2.5v-2v-2c-0.666992 -30 -11.167 -58 -31.5 -84s-48.833 -42.667 -85.5 -50c3.33301 -2 17.666 -19.5 42.999 -52.5s84.333 -118.5 177 -256.5l-107 -22c-88.667 134 -146 219 -172 255
s-43 54 -51 54h-98v-299h-107v605h245v0zM293.001 383c29.333 0 51.5 6.83203 66.5 20.499s22.833 28.834 23.5 45.501v1.5v1.5c0 17.333 -7.5 33 -22.5 47s-37.5 21 -67.5 21h-138v-137h138v0z" />
    <glyph glyph-name="S" unicode="S" horiz-adv-x="510" 
d="M439 497c-34.667 11.333 -66.6699 19.3311 -96.0029 23.998s-55.333 7 -78 7c-40 0 -70.167 -6.33301 -90.5 -19s-30.5 -27 -30.5 -43c0 -2.66699 0.333008 -5.16699 1 -7.5s1.33398 -4.83301 2.00098 -7.5c4.66699 -12 15.334 -23.333 32.001 -34s39 -18.667 67 -24
c61.333 -12 115.5 -33.167 162.5 -63.5s73.833 -74.166 80.5 -131.499v-4.5c0 -1.66699 0.333008 -3.5 1 -5.5v-5.5v-4.5c0 -52.667 -22.667 -97.834 -68 -135.501s-107.333 -56.5 -186 -56.5c-32.667 0 -67.834 3.83301 -105.501 11.5s-77.167 20.167 -118.5 37.5l-2 106
l21 -10.5l22 -10.5c10.667 -4 21.167 -8.16699 31.5 -12.5s19.833 -7.83301 28.5 -10.5c22.667 -6.66699 44 -11.834 64 -15.501s38.667 -5.5 56 -5.5c47.333 0 83.833 10.667 109.5 32s38.5 48 38.5 80v3.5v2.5c-2 20 -13.667 39 -35 57s-53.666 32.667 -96.999 44
c-62.667 18 -114.167 39.333 -154.5 64s-60.5 60.667 -60.5 108v1.5v1.5v0.5v0.5c0.666992 0.666992 1 1.33398 1 2.00098v1c2 52 25.333 88.5 70 109.5s95 31.5 151 31.5h14.5c5 0 10.167 -0.333008 15.5 -1c26.667 -1.33301 52.834 -4.66602 78.501 -9.99902
s49.167 -11.666 70.5 -18.999l4 -88v0z" />
    <glyph glyph-name="T" unicode="T" horiz-adv-x="510" 
d="M503 605v-85h-195v-520h-107v520h-195v85h497v0z" />
    <glyph glyph-name="U" unicode="U" horiz-adv-x="595" 
d="M157 188c0 -26.667 11.5 -51.333 34.5 -74s57.5 -34 103.5 -34c42.667 0 76.334 10.167 101.001 30.5s38.667 42.833 42 67.5c0.666992 1.33301 1 2.83301 1 4.5v5.5v417h107v-429c0 -58 -25.333 -103.167 -76 -135.5s-108.334 -48.5 -173.001 -48.5
s-122.167 16.167 -172.5 48.5s-75.5 77.5 -75.5 135.5v429h108v-417v0z" />
    <glyph glyph-name="V" unicode="V" horiz-adv-x="633" 
d="M253 0l-243 605h104l201 -504l202 504h104l-243 -605h-125v0z" />
    <glyph glyph-name="W" unicode="W" horiz-adv-x="851" 
d="M350 0h-97l-254 605h95l203 -478l79 200l-107 278h95l60 -170l60 170h97l-108 -278l80 -200l203 478h96l-254 -605h-98l-76 207l-74 -207v0z" />
    <glyph glyph-name="X" unicode="X" horiz-adv-x="633" 
d="M460 605h118l-203 -272l249 -333h-125l-182 253l-183 -253h-125l248 332l-201 273h117l144 -196l143 196v0z" />
    <glyph glyph-name="Y" unicode="Y" horiz-adv-x="548" 
d="M314 0h-96v358l-214 247h120l142 -159l147 159h121l-220 -247v-358v0z" />
    <glyph glyph-name="Z" unicode="Z" horiz-adv-x="539" 
d="M505 605v-85l-347 -437h352v-83h-480v83l355 437h-340v85h460v0z" />
    <glyph glyph-name="bracketleft" unicode="[" horiz-adv-x="312" 
d="M47 -216v907h233v-86h-142v-735h142v-86h-233v0z" />
    <glyph glyph-name="backslash" unicode="\" horiz-adv-x="445" 
d="M77 605l409 -736h-98l-407 736h96v0z" />
    <glyph glyph-name="bracketright" unicode="]" horiz-adv-x="312" 
d="M259 -216h-233v86h142v735h-142v86h233v-907v0z" />
    <glyph glyph-name="asciicircum" unicode="^" horiz-adv-x="388" 
d="M5 462l138 221h103l138 -221h-104l-85 142l-87 -142h-103v0z" />
    <glyph glyph-name="underscore" unicode="_" horiz-adv-x="473" 
d="M5 -25h466v-68h-466v68v0z" />
    <glyph glyph-name="grave" unicode="`" horiz-adv-x="133" 
d="M96 550h-97l77 131h64l-44 -131v0z" />
    <glyph glyph-name="a" unicode="a" horiz-adv-x="473" 
d="M89 451c10 4 20.3232 7.33301 30.9902 10s21.334 5 32.001 7c14.667 2.66699 29.334 4.66699 44.001 6s29 2 43 2c22 0 43.167 -1.66699 63.5 -5s37.833 -8.33301 52.5 -15c26.667 -12 46.834 -30.333 60.501 -55s20.5 -54 20.5 -88v-313h-82v22
c-14.667 -8.66699 -35.167 -16 -61.5 -22s-54.166 -9 -83.499 -9h-9.5h-8.5c-44.667 2.66699 -85.667 15.167 -123 37.5s-56 60.5 -56 114.5c0 58 22.833 99 68.5 123s95.834 36 150.501 36c5.33301 0 10.833 -0.166992 16.5 -0.5s11.167 -0.5 16.5 -0.5
c14.667 -1.33301 29.334 -3.33301 44.001 -6s28.334 -5.66699 41.001 -9c0 38 -4.33301 64.333 -13 79s-21.667 25 -39 31l-16 4c-5.33301 1.33301 -10.666 2.33301 -15.999 3s-10.666 1.16699 -15.999 1.5s-10.666 0.5 -15.999 0.5c-20.667 0 -43 -3 -67 -9
s-49.667 -14.667 -77 -26v81v0zM103.99 143c0 -27.333 12.665 -47.001 37.998 -59.001s54.333 -18 87 -18h9.5c3 0 6.16699 0.333008 9.5 1c19.333 1.33301 37.833 4.33301 55.5 9s32.834 10.334 45.501 17.001v118c-2 0.666992 -4.83301 1.5 -8.5 2.5
s-7.5 2.16699 -11.5 3.5c-11.333 2.66699 -25.166 5 -41.499 7s-33.5 3 -51.5 3h-5.5h-5.5c-30 -1.33301 -57.667 -7.83301 -83 -19.5s-38 -33.167 -38 -64.5v0z" />
    <glyph glyph-name="b" unicode="b" horiz-adv-x="501" 
d="M488 226c0 -66.667 -24.6699 -122.5 -74.0029 -167.5s-110.666 -67.5 -183.999 -67.5c-29.333 0 -60.166 4.16699 -92.499 12.5s-65.166 21.833 -98.499 40.5v561h88l1 -154c21.333 7.33301 42.5 12.833 63.5 16.5s41.167 5.5 60.5 5.5c67.333 0 123.5 -21.333 168.5 -64
s67.5 -103.667 67.5 -183v0zM390.997 232c0 55.333 -14.833 96.834 -44.5 124.501s-64.167 41.5 -103.5 41.5c-9.33301 0 -18.833 -0.833008 -28.5 -2.5s-19.167 -3.83398 -28.5 -6.50098c-10 -3.33301 -19.833 -7.33301 -29.5 -12s-19.167 -10 -28.5 -16l-1 -262
c14 -7.33301 29.5 -13.166 46.5 -17.499s34.167 -6.5 51.5 -6.5h2.5h3.5c40 1.33301 76.667 14.166 110 38.499s50 63.833 50 118.5v0z" />
    <glyph glyph-name="c" unicode="c" horiz-adv-x="463" 
d="M419 111l37.002 -69.999c-21.333 -14 -44.5 -24.667 -69.5 -32s-50.167 -12 -75.5 -14c-4.66699 0 -9.33398 -0.166992 -14.001 -0.5s-9.33398 -0.5 -14.001 -0.5c-68 0 -129 20.5 -183 61.5s-81 101.833 -81 182.5c0 81.333 27 142.166 81 182.499s115 60.5 183 60.5
c6.66699 0 13.5 -0.166992 20.5 -0.5s13.833 -0.833008 20.5 -1.5c23.333 -2.66699 46.166 -7.66699 68.499 -15s43.5 -17 63.5 -29l-37 -71c-3.33301 2 -7 3.83301 -11 5.5s-7.66699 3.5 -11 5.5c-18.667 8 -37 14 -55 18s-35.333 6 -52 6
c-48.667 0 -89.834 -14.5 -123.501 -43.5s-50.5 -68.167 -50.5 -117.5s16.833 -88 50.5 -116s74.834 -42 123.501 -42c20.667 0 41.834 2.5 63.501 7.5s43.5 12.833 65.5 23.5v0z" />
    <glyph glyph-name="d" unicode="d" horiz-adv-x="501" 
d="M463 0h-88.0029v27c-16.667 -10 -35.5 -17.5 -56.5 -22.5s-42.833 -7.5 -65.5 -7.5c-5.33301 0 -11 0.166992 -17 0.5s-11.667 0.833008 -17 1.5c-53.333 6 -102.333 28.167 -147 66.5s-67 95.833 -67 172.5c0 76 23.167 133.5 69.5 172.5s97.5 61.167 153.5 66.5
c4.66699 0 9.33398 0.166992 14.001 0.5s9.33398 0.5 14.001 0.5c21.333 0 42.333 -2.33301 63 -7s39.334 -11.667 56.001 -21v155h88v-605v0zM374.997 360c-11.333 14 -26.832 24.833 -46.499 32.5s-40.5 11.5 -62.5 11.5h-8.5c-3 0 -6.16699 -0.333008 -9.5 -1
c-36 -3.33301 -69.167 -18.333 -99.5 -45s-45.5 -66.667 -45.5 -120c0 -58 16.167 -100 48.5 -126s67.833 -40 106.5 -42h4h4c20.667 0 40.667 3 60 9s35.666 14.333 48.999 25v256v0z" />
    <glyph glyph-name="e" unicode="e" horiz-adv-x="530" 
d="M520 250h-408.998v-3v-4c-0.666992 -1.33301 -1 -2.5 -1 -3.5v-3.5c0 -6 0.333008 -12.167 1 -18.5s1.66699 -12.833 3 -19.5c8 -33.333 25.333 -64 52 -92s61.334 -42.333 104.001 -43h5c37.333 0 69.666 8 96.999 24s52.666 38.333 75.999 67l62 -59
c-32.667 -38.667 -68.334 -66 -107.001 -82s-80.667 -24 -126 -24l-10 -1c-82.667 2.66699 -145.5 29.5 -188.5 80.5s-64.5 108.833 -64.5 173.5c0 4 0.166992 8.16699 0.5 12.5s0.833008 8.83301 1.5 13.5c6 52 30 99.667 72 143s101.667 65 179 65
c81.333 0 143.333 -23.167 186 -69.5s65 -98.5 67 -156.5v0zM270.002 405h-2.00195c-8 0 -16.167 -0.666992 -24.5 -2s-16.833 -3.33301 -25.5 -6c-18 -6 -35.167 -15 -51.5 -27s-29.166 -27.333 -38.499 -46h286c-9.33301 17.333 -22.166 32 -38.499 44s-33.5 21 -51.5 27
c-8.66699 3.33301 -17.5 5.83301 -26.5 7.5s-17.5 2.5 -25.5 2.5h-2v0z" />
    <glyph glyph-name="f" unicode="f" horiz-adv-x="321" 
d="M70 477c0 44.667 14.6699 78 44.0029 100s64.333 33 105 33c7.33301 0 15.166 -0.333008 23.499 -1s16.833 -2 25.5 -4c5.33301 -0.666992 10.5 -1.66699 15.5 -3l14.5 -4v-76c-14.667 6.66699 -28.834 11.667 -42.501 15s-25.834 5 -36.501 5
c-19.333 0 -34.333 -5.5 -45 -16.5s-16 -27.167 -16 -48.5v-13h159v-73h-159v-391h-88v391h-77v73h77v13v0z" />
    <glyph glyph-name="g" unicode="g" horiz-adv-x="492" 
d="M341 81c44.667 -8.66699 81.5029 -24.6719 110.503 -48.0049s44.167 -56 45.5 -98v-3c0 -47.333 -24.667 -86.666 -74 -117.999s-108 -47 -176 -47l-1 -1c-75.333 0.666992 -133.5 17.834 -174.5 51.501s-62.167 70.834 -63.5 111.501v1.5v1.5c0 26.667 9 52 27 76
s45.333 44 82 60c-14.667 8 -26.334 17.833 -35.001 29.5s-14 23.834 -16 36.501v3v4v3.5v3.5c1.33301 12 6.66602 23.833 15.999 35.5s22.666 21.5 39.999 29.5c-30.667 14.667 -52.5 31.5 -65.5 50.5s-19.5 41.5 -19.5 67.5v2c0 0.666992 0.333008 1.33398 1 2.00098v2v2
c2 37.333 21.833 69 59.5 95s86.834 39 147.501 39c4.66699 0 9.66699 -0.333008 15 -1s10.333 -1.33398 15 -2.00098c12 -1.33301 23.5 -3.16602 34.5 -5.49902s21.167 -5.16602 30.5 -8.49902l47 74h106l-96 -98c19.333 -12.667 32.666 -26.834 39.999 -42.501
s11 -33.167 11 -52.5v-3c-0.666992 -38 -15.5 -71.667 -44.5 -101s-75.833 -44 -140.5 -44c-2 0 -4.16699 0.166992 -6.5 0.5s-4.5 0.5 -6.5 0.5c-2.66699 0 -5.16699 0.166992 -7.5 0.5s-4.5 0.5 -6.5 0.5h-10c-19.333 0 -35.833 -4 -49.5 -12s-21.5 -17 -23.5 -27
c-0.666992 -0.666992 -1 -1.5 -1 -2.5v-2.5v-2.5c0 -1 0.333008 -1.83301 1 -2.5c1.33301 -8 7 -15.5 17 -22.5s25 -12.5 45 -16.5l28.5 -4.5c10.333 -1.66699 20.833 -3.5 31.5 -5.5c2 0 3.83301 -0.166992 5.5 -0.5s3.16699 -0.833008 4.5 -1.5
c10 -2 19.833 -3.83301 29.5 -5.5l26.5 -4.5v0zM184.003 28.9951c-27.333 -8 -49.6631 -19.667 -66.9961 -35s-27.333 -31.333 -30 -48c-0.666992 -2 -1 -3.83301 -1 -5.5v-4.5c0 -2 0.166992 -4.16699 0.5 -6.5s0.833008 -4.5 1.5 -6.5c2 -8 6 -16.167 12 -24.5
s14.333 -16.166 25 -23.499l15 -9.5c4.66699 -3 9.66699 -5.83301 15 -8.5c15.333 -7.33301 31.166 -12.5 47.499 -15.5s35.166 -4.5 56.499 -4.5c39.333 0.666992 72.5 9.5 99.5 26.5s42.833 35.833 47.5 56.5c0.666992 2.66699 1.16699 5 1.5 7s0.5 4 0.5 6v3
c-2.66699 23.333 -16.334 40.166 -41.001 50.499s-58.334 19.5 -101.001 27.5c-12 2.66699 -24.833 5.16699 -38.5 7.5l-43.5 7.5v0zM249.006 255.995c32 0 59.502 6.83203 82.502 20.499s34.5 32.834 34.5 57.501c0 22 -8.83301 38.5 -26.5 49.5
s-36.834 18.167 -57.501 21.5c-6.66699 1.33301 -13.334 2.16602 -20.001 2.49902s-13 0.5 -19 0.5s-12.167 -0.333008 -18.5 -1s-12.833 -1.66699 -19.5 -3c-20.667 -4.66699 -39.667 -12.667 -57 -24s-26 -25.666 -26 -42.999c0 -28 12 -48.5 36 -61.5
s54.333 -19.5 91 -19.5v0z" />
    <glyph glyph-name="h" unicode="h" horiz-adv-x="492" 
d="M127 427c26 20 51.833 33 77.5 39s50.834 9.33301 75.501 10c44.667 0 84.667 -11.5 120 -34.5s53 -57.167 53 -102.5v-339h-87v321c0 27.333 -9.5 47.666 -28.5 60.999s-41.833 20 -68.5 20c-8 0 -16.333 -0.666992 -25 -2s-17.334 -3.33301 -26.001 -6
c-16.667 -6 -33 -14.167 -49 -24.5s-30 -23.166 -42 -38.499v-331h-88v605h88v-178v0z" />
    <glyph glyph-name="i" unicode="i" horiz-adv-x="171" 
d="M127 0h-87v464h87v-464v0zM40 592h87v-78h-87v78v0z" />
    <glyph glyph-name="j" unicode="j" horiz-adv-x="171" 
d="M-97 -134c18 -6 34 -10.666 48 -13.999s26 -5 36 -5c18.667 0 32 6.33301 40 19s12 30.667 12 54l1 544h87v-567c0 -36 -10.667 -66.833 -32 -92.5s-53 -38.5 -95 -38.5c-14 0 -29.667 1.66699 -47 5s-35.333 8.66602 -54 15.999l4 79v0zM127 514.001h-87v78h87v-78v0z
" />
    <glyph glyph-name="k" unicode="k" horiz-adv-x="473" 
d="M386 -12l-120.003 210.001c-8 15.333 -19.167 27.833 -33.5 37.5s-29.166 14.5 -44.499 14.5h-63v-250h-87v605h87v-290l172 149h115l-176 -150c29.333 -0.666992 53.333 -9.33398 72 -26.001s36 -41 52 -73c0.666992 -1.33301 1.33398 -2.5 2.00098 -3.5
s1.33398 -2.16699 2.00098 -3.5l114 -203l-92 -17v0z" />
    <glyph glyph-name="l" unicode="l" horiz-adv-x="171" 
d="M40 605h87v-605h-87v605v0z" />
    <glyph glyph-name="m" unicode="m" horiz-adv-x="794" 
d="M438 339l0.000976562 -339.001h-87v317c0 25.333 -10.833 45.833 -32.5 61.5s-46.834 23.5 -75.501 23.5c-5.33301 0 -10.833 -0.333008 -16.5 -1s-11.167 -1.66699 -16.5 -3c-15.333 -4 -30.5 -11 -45.5 -21s-28.167 -23 -39.5 -39v-338h-87v464h87v-42
c4 3.33301 8 6.5 12 9.5s8 5.83301 12 8.5c20 14 40.167 24 60.5 30s41.166 9 62.499 9c30 -0.666992 56.667 -6.5 80 -17.5s42.333 -27.167 57 -48.5c18 16 37 28.5 57 37.5s40 15.5 60 19.5c10 2 20 3.5 30 4.5s20 1.5 30 1.5c44.667 0 82.834 -13.333 114.501 -40
s48.167 -59 49.5 -97v-339h-87v320c0 24 -10.833 43.5 -32.5 58.5s-46.167 22.5 -73.5 22.5c-4.66699 0 -9.16699 -0.166992 -13.5 -0.5s-8.83301 -1.16602 -13.5 -2.49902c-16.667 -2.66699 -33.167 -9 -49.5 -19s-30.5 -23.333 -42.5 -40v0z" />
    <glyph glyph-name="n" unicode="n" horiz-adv-x="492" 
d="M127 422c14 12.667 29.9971 23.001 47.9971 31.001s36.333 14 55 18c8.66699 1.33301 17.334 2.5 26.001 3.5s17 1.5 25 1.5h2h5.5h5.5c40 -2 76.5 -14.667 109.5 -38s49.5 -56.333 49.5 -99v-339h-87v328c0 23.333 -10 41.666 -30 54.999s-43.667 20 -71 20
c-7.33301 0 -14.666 -0.5 -21.999 -1.5s-14.666 -2.5 -21.999 -4.5c-17.333 -4.66699 -34.333 -12.167 -51 -22.5s-31 -23.833 -43 -40.5v-334h-88v464h88v-42v0z" />
    <glyph glyph-name="o" unicode="o" horiz-adv-x="539" 
d="M269 -13c-68.667 0.666992 -127.833 23.334 -177.5 68.001s-74.5 105 -74.5 181l1 1c0 75.333 25.167 134 75.5 176s107.5 63 171.5 63h4c64.667 -0.666992 122.5 -21.834 173.5 -63.501s76.833 -100.167 77.5 -175.5v-1c0 -74 -24.667 -133.667 -74 -179
s-108 -68 -176 -68l-1 -2v0zM268.001 62c42 0 78.332 15.5 108.999 46.5s46 71.167 46 120.5s-14.5 90 -43.5 122s-66.167 48 -111.5 48h-1c-45.333 -0.666992 -82.166 -16.667 -110.499 -48s-42.5 -72 -42.5 -122c0 -49.333 15.167 -89.5 45.5 -120.5
s66.5 -46.5 108.5 -46.5v0z" />
    <glyph glyph-name="p" unicode="p" horiz-adv-x="510" 
d="M132 10v-238.999h-87v693h87v-22c20 10 40.667 17.5 62 22.5s42.666 7.5 63.999 7.5c60 0 114.167 -19.667 162.5 -59s72.5 -97.333 72.5 -174c0 -78.667 -23.167 -139 -69.5 -181s-105.5 -63 -177.5 -63c-17.333 0 -35.666 1.16699 -54.999 3.5s-39 6.16602 -59 11.499
v0zM132 356.001v-261c14.667 -7.33301 30.5 -13.166 47.5 -17.499s34.167 -6.5 51.5 -6.5c41.333 0 79 12.667 113 38s51 66.666 51 123.999c0 54 -15 94 -45 120s-64.667 39 -104 39c-6 0 -12.333 -0.333008 -19 -1s-13 -1.66699 -19 -3
c-13.333 -2.66699 -26.333 -6.66699 -39 -12s-25 -12 -37 -20v0z" />
    <glyph glyph-name="q" unicode="q" horiz-adv-x="520" 
d="M22 239c0 70 27.333 126.168 82 168.501s121 63.5 199 63.5c16.667 0 33.834 -1.16699 51.501 -3.5s35.5 -5.5 53.5 -9.5c10 -2.66699 20.167 -5.66699 30.5 -9s20.5 -7 30.5 -11v-667h-87v236c-18.667 -4.66699 -37.334 -8.16699 -56.001 -10.5s-36.667 -3.5 -54 -3.5
c-71.333 0 -130.833 20.667 -178.5 62s-71.5 102.666 -71.5 183.999v0zM119 234.001c0 -57.333 17.166 -98.666 51.499 -123.999s71.833 -38 112.5 -38c4 0 8.16699 0.166992 12.5 0.5s8.83301 0.833008 13.5 1.5c12.667 1.33301 25.334 4 38.001 8
s24.334 8.66699 35.001 14v279c-10.667 5.33301 -23.334 9.16602 -38.001 11.499s-30 3.5 -46 3.5c-4.66699 0 -9.66699 -0.166992 -15 -0.5s-10.333 -0.833008 -15 -1.5c-37.333 -4 -71.5 -17.833 -102.5 -41.5s-46.5 -61.167 -46.5 -112.5v0z" />
    <glyph glyph-name="r" unicode="r" horiz-adv-x="293" 
d="M289 399h-19.998c-22.667 0 -43.834 -2.66699 -63.501 -8s-38.834 -16 -57.501 -32c-3.33301 -2.66699 -6.83301 -5.66699 -10.5 -9s-7.16699 -7 -10.5 -11v-339h-88v464h88v-42c18.667 18 39.5 30.667 62.5 38s47.167 11 72.5 11h6.5h6.5
c0.666992 -0.666992 1.5 -1 2.5 -1h2.5h4.5h4.5v-71v0z" />
    <glyph glyph-name="s" unicode="s" horiz-adv-x="435" 
d="M369 368l-17.4971 7.50391c-5.66699 2.33301 -11.5 4.5 -17.5 6.5c-17.333 6.66699 -34.833 11.667 -52.5 15s-35.834 5 -54.501 5s-36.334 -3 -53.001 -9s-27.667 -13.333 -33 -22c-0.666992 -1.33301 -1.33398 -2.83301 -2.00098 -4.5s-1 -3.5 -1 -5.5
c-0.666992 -0.666992 -1 -1.5 -1 -2.5v-2.5c0 -2 0.166992 -3.83301 0.5 -5.5s0.833008 -3.5 1.5 -5.5c3.33301 -8.66699 10.666 -17 21.999 -25s26.333 -14 45 -18c59.333 -10.667 108.5 -27.334 147.5 -50.001s59.167 -58.667 60.5 -108v-9
c0 -44.667 -18 -79.667 -54 -105s-83.667 -38.666 -143 -39.999l-12 -1c-16.667 0.666992 -34 2.33398 -52 5.00098s-36 6.33398 -54 11.001c-15.333 4 -30.666 9.16699 -45.999 15.5s-30.333 13.5 -45 21.5l37 81c34.667 -16.667 66.167 -29.834 94.5 -39.501
s53.5 -14.834 75.5 -15.501c32.667 0.666992 57.834 7.66699 75.501 21s26.5 28.333 26.5 45v4c0 1.33301 -0.333008 2.66602 -1 3.99902c-2 15.333 -11.5 29.833 -28.5 43.5s-41.167 23.5 -72.5 29.5c-62.667 17.333 -106.334 37.666 -131.001 60.999
s-37 50.666 -37 81.999c0.666992 33.333 18.167 60.666 52.5 81.999s75.5 32 123.5 32c19.333 0 37.5 -0.833008 54.5 -2.5s33.5 -4.16699 49.5 -7.5c11.333 -2.66699 22.833 -5.66699 34.5 -9s23.5 -7.33301 35.5 -12l-28 -73v0z" />
    <glyph glyph-name="t" unicode="t" horiz-adv-x="350" 
d="M62 91v300.999h-64v72h64v68l87 25v-93h171v-72h-171v-273c0 -14.667 6.5 -25.834 19.5 -33.501s28.833 -11.5 47.5 -11.5c7.33301 0 15 0.5 23 1.5s16 2.83301 24 5.5c9.33301 2.66699 18.5 5.83398 27.5 9.50098s17.833 8.16699 26.5 13.5l41 -63
c-15.333 -9.33301 -32 -17.5 -50 -24.5s-36.333 -12.167 -55 -15.5c-10.667 -2 -21.167 -3.5 -31.5 -4.5s-20.5 -1.5 -30.5 -1.5c-33.333 0 -62.5 7.33301 -87.5 22s-38.833 39.334 -41.5 74.001v0z" />
    <glyph glyph-name="u" unicode="u" horiz-adv-x="510" 
d="M375 0l-1.00098 38.999c-30 -14.667 -58.833 -25.334 -86.5 -32.001s-53.167 -10 -76.5 -10c-52.667 0 -94.5 13.833 -125.5 41.5s-46.5 59.834 -46.5 96.501v329h87v-296c0 -35.333 10.833 -61 32.5 -77s46.834 -24 75.501 -24c6 0 12.167 0.333008 18.5 1
s12.833 1.66699 19.5 3c18.667 4 37 10.333 55 19s33.667 19.334 47 32.001l1 342h87v-464h-87v0z" />
    <glyph glyph-name="v" unicode="v" horiz-adv-x="558" 
d="M0 464h106l172 -367l171 367h106l-225 -464h-104l-226 464v0z" />
    <glyph glyph-name="w" unicode="w" horiz-adv-x="775" 
d="M528 464l-94 -208l71 -155l162 363h106l-223 -464h-88l-74 158l-71 -158h-88l-227 464h106l166 -363l70 155l-97 208h92l49 -119l48 119h92v0z" />
    <glyph glyph-name="x" unicode="x" horiz-adv-x="482" 
d="M373 0l-134 194l-130 -194h-114l190 265l-148 199h105l97 -133l88 133h105l-140 -198l195 -266h-114v0z" />
    <glyph glyph-name="y" unicode="y" horiz-adv-x="539" 
d="M188 -99l49.9961 101.001l-233 462h104l176 -357l160 357h97l-271 -597c-12.667 -27.333 -30 -48.5 -52 -63.5s-44.667 -24.833 -68 -29.5l-17.5 -2c-5.66699 -0.666992 -11.167 -1 -16.5 -1c-12.667 0 -25.167 1.16699 -37.5 3.5s-23.166 6.16602 -32.499 11.499v71
c2 0 4.16699 -0.333008 6.5 -1s4.83301 -1 7.5 -1c6.66699 -2 13.334 -3.33301 20.001 -4s13 -1 19 -1c18.667 0 35.834 4 51.501 12s27.834 21.333 36.501 40v-1z" />
    <glyph glyph-name="z" unicode="z" horiz-adv-x="482" 
d="M29 0v73l302 319h-289v72h404v-69l-293 -322h302v-73h-426v0z" />
    <glyph glyph-name="braceleft" unicode="{" horiz-adv-x="246" 
d="M23 232c18 3.33301 30.998 13.332 38.998 29.999s12 38.667 12 66v212c0 22.667 6.16699 41.334 18.5 56.001s25.833 23.667 40.5 27c2 0.666992 4.16699 1.16699 6.5 1.5s4.5 0.5 6.5 0.5h81v-50h-42c-7.33301 0 -13.5 -4.16699 -18.5 -12.5s-7.5 -18.833 -7.5 -31.5
l1 -186c0 -34.667 -5.66699 -65.167 -17 -91.5s-32.666 -45.166 -63.999 -56.499c31.333 -10.667 52.833 -29.334 64.5 -56.001s17.5 -57.334 17.5 -92.001v-184c0 -12.667 2.5 -23 7.5 -31s11.167 -12 18.5 -12l43 -1v-51h-81c-2.66699 0.666992 -5.16699 1.16699 -7.5 1.5
s-4.83301 0.833008 -7.5 1.5c-14.667 4 -28 13.333 -40 28s-18 33.334 -18 56.001l-1 209v4v5c-1.33301 20.667 -6.16602 39.667 -14.499 57s-20.833 27 -37.5 29l-15 3v66l15 2v0z" />
    <glyph glyph-name="bar" unicode="|" horiz-adv-x="180" 
d="M136 -229h-90v854h90v-854v0z" />
    <glyph glyph-name="braceright" unicode="}" horiz-adv-x="246" 
d="M218 232l14.999 -2v-66l-15 -3c-16.667 -2 -29.167 -11.667 -37.5 -29s-13.166 -36.333 -14.499 -57v-5v-4l-1 -210c0 -22 -6 -40.333 -18 -55s-25.333 -24 -40 -28c-2.66699 -0.666992 -5.16699 -1.16699 -7.5 -1.5s-4.83301 -0.5 -7.5 -0.5l-81 -1v51h43
c7.33301 0.666992 13.5 5 18.5 13s7.5 18.667 7.5 32v183c0 34.667 5.83301 65.334 17.5 92.001s33.167 45.334 64.5 56.001c-30.667 11.333 -51.834 30.166 -63.501 56.499s-17.5 56.833 -17.5 91.5l1 186c0 12.667 -2.5 23.167 -7.5 31.5s-11.167 12.5 -18.5 12.5h-42v50
h81c2 0 4.16699 -0.166992 6.5 -0.5s4.5 -0.833008 6.5 -1.5c14.667 -3.33301 28.167 -12.333 40.5 -27s18.5 -33.334 18.5 -56.001v-212c0 -27.333 3.83301 -49.333 11.5 -66s20.834 -26.667 39.501 -30v0z" />
    <glyph glyph-name="asciitilde" unicode="~" horiz-adv-x="293" 
d="M41 546l-27.998 0.00292969v44c0 14.667 7.33301 27 22 37s31 15 49 15c2 0 4.16699 -0.166992 6.5 -0.5s4.83301 -0.5 7.5 -0.5c2.66699 -0.666992 5.16699 -1.33398 7.5 -2.00098s4.5 -1.33398 6.5 -2.00098c7.33301 -2.66699 14.5 -6.66699 21.5 -12
s13.833 -11 20.5 -17c9.33301 -8.66699 18 -16.334 26 -23.001s15.667 -10 23 -10c4 0 8 1.33301 12 4s7.66699 6.33398 11 11.001v28h44v-37c0 -3.33301 -0.833008 -7 -2.5 -11s-3.83398 -8 -6.50098 -12c-6 -10 -15.667 -19.333 -29 -28s-29 -13 -47 -13h-4.5
c-1.66699 0 -3.16699 0.333008 -4.5 1c-2 0 -3.83301 0.166992 -5.5 0.5s-3.16699 0.5 -4.5 0.5c-12 3.33301 -22.833 8.33301 -32.5 15s-18.167 13.667 -25.5 21s-13.833 14.166 -19.5 20.499s-10.834 11.166 -15.501 14.499c-1.33301 1.33301 -2.83301 2.33301 -4.5 3
s-3.5 1.33398 -5.5 2.00098h-2.5h-2.5c-4.66699 0 -8.66699 -1.33301 -12 -4s-5 -6 -5 -10v-35v0z" />
    <glyph glyph-name="space" horiz-adv-x="416" 
 />
    <glyph glyph-name="F" 
d="M307 208v-94l-279 152v102l279 151v-95l-179 -107l179 -109v0z" />
    <glyph glyph-name="asciitilde" 
d="M307 208v-94l-279 152v102l279 151v-95l-179 -107l179 -109v0z" />
    <glyph glyph-name="D" 
d="M307 208v-94l-279 152v102l279 151v-95l-179 -107l179 -109v0z" />
    <glyph glyph-name="N" 
d="M307 208v-94l-279 152v102l279 151v-95l-179 -107l179 -109v0z" />
    <glyph glyph-name="bullet" 
d="M307 208v-94l-279 152v102l279 151v-95l-179 -107l179 -109v0z" />
    <glyph glyph-name="guilsinglleft" 
d="M307 208v-94l-279 152v102l279 151v-95l-179 -107l179 -109v0z" />
    <glyph glyph-name="O" 
d="M307 208v-94l-279 152v102l279 151v-95l-179 -107l179 -109v0z" />
    <glyph glyph-name="tilde" 
d="M307 208v-94l-279 152v102l279 151v-95l-179 -107l179 -109v0z" />
    <glyph glyph-name="greater" unicode="&#xa0;" 
 />
    <glyph glyph-name="Z" unicode="&#xa1;" horiz-adv-x="624" 
d="M497 605h127l-453 -605h-118l200 273l-246 332h127l182 -252l181 252v0zM173 721h276v-77h-276v77v0z" />
    <glyph glyph-name="slash" unicode="&#xa2;" horiz-adv-x="558" 
d="M188 -99l49.9961 101.001l-233 462h104l176 -357l160 357h97l-271 -597c-12.667 -27.333 -30 -48.5 -52 -63.5s-44.667 -24.833 -68 -29.5l-17.5 -2c-5.66699 -0.666992 -11.167 -1 -16.5 -1c-12.667 0 -25.167 1.16699 -37.5 3.5s-23.166 6.16602 -32.499 11.499v71
c2 0 4.16699 -0.333008 6.5 -1s4.83301 -1 7.5 -1c6.66699 -2 13.334 -3.33301 20.001 -4s13 -1 19 -1c18.667 0 35.834 4 51.501 12s27.834 21.333 36.501 40v-1zM402.996 592.001v-78h-247v78h247v0z" />
    <glyph glyph-name="endash" unicode="&#xa3;" horiz-adv-x="321" 
d="M216 86h97l-77 -132h-64l44 132v0zM77 86h97l-77 -131h-64l44 131v0z" />
    <glyph glyph-name="quotedblleft" unicode="&#xa4;" horiz-adv-x="473" 
d="M47 296c0 22 3.33301 42.001 10 60.001s16 34.333 28 49l-49 38l21 21l50 -39c16.667 14 35.5 24.667 56.5 32s43.833 11 68.5 11s47.5 -3.66699 68.5 -11s39.833 -18 56.5 -32l49 39l21 -21l-49 -38c12 -14.667 21.333 -30.834 28 -48.501s10 -37.5 10 -59.5
s-3.33301 -42.333 -10 -61s-16 -35 -28 -49l49 -39l-21 -21l-49 40c-16.667 -14.667 -35.5 -25.5 -56.5 -32.5s-43.833 -10.5 -68.5 -10.5s-47.5 3.5 -68.5 10.5s-39.833 17.833 -56.5 32.5l-50 -40l-21 21l49 39c-12 14 -21.333 30.167 -28 48.5s-10 38.5 -10 60.5v0z
M87 296.001l-1 -3c0 -38.667 13 -71.334 39 -98.001s61.667 -40 107 -40s80.666 13.333 105.999 40s38 59.334 38 98.001v4c0 39.333 -12.667 72.333 -38 99s-60.666 40 -105.999 40s-81 -13.333 -107 -40s-39 -59.667 -39 -99l1 -1v0z" />
    <glyph glyph-name="emdash" unicode="&#xa5;" horiz-adv-x="407" 
d="M412 658v-138h-258v-520h-107v605h290l75 53v0z" />
    <glyph glyph-name="circumflex" unicode="&#xa6;" horiz-adv-x="189" 
d="M136 -229h-90v412h90v-412v0zM46 266v359h90v-359h-90v0z" />
    <glyph glyph-name="scaron" unicode="&#xa7;" horiz-adv-x="492" 
d="M32 -107l8.00098 112.005c25.333 -20 53.333 -38 84 -54s64.334 -24 101.001 -24h5.5h5.5c2 0.666992 3.83301 1 5.5 1h5.5c31.333 2.66699 54.833 10.167 70.5 22.5s23.5 26.166 23.5 41.499c0 3.33301 -0.333008 6.33301 -1 9s-1.66699 5.66699 -3 9
c-5.33301 12.667 -16 25 -32 37s-37 21.667 -63 29c-57.333 16 -109.5 42 -156.5 78s-72.167 74 -75.5 114v2.5v3.5c-0.666992 0.666992 -1 1.5 -1 2.5v2.5c0 29.333 9.33301 57 28 83s44.334 47.333 77.001 64c-2 2 -4.16699 3.83301 -6.5 5.5s-4.5 3.5 -6.5 5.5
c-14 11.333 -26.667 25.333 -38 42s-17 35.667 -17 57c0 6 0.666992 12.667 2 20s3.33301 14.666 6 21.999c11.333 37.333 36.5 64 75.5 80s81.167 24 126.5 24h10.5c3.66699 0 7.16699 -0.333008 10.5 -1c29.333 -1.33301 57.666 -5.5 84.999 -12.5
s50.666 -15.833 69.999 -26.5l-14 -97c-30 21.333 -58.5 36.333 -85.5 45s-51.167 13 -72.5 13c-28.667 0 -51.834 -6.66699 -69.501 -20s-26.5 -28.666 -26.5 -45.999c0 -3.33301 0.333008 -7 1 -11s2 -7.66699 4 -11c4.66699 -10.667 12.667 -20.834 24 -30.501
s26.666 -18.167 45.999 -25.5c62 -17.333 114.833 -41.333 158.5 -72s68.834 -65.667 75.501 -105c0 -2 0.166992 -4.16699 0.5 -6.5s0.5 -4.5 0.5 -6.5c0.666992 -4 1.16699 -8 1.5 -12s0.5 -8 0.5 -12c0 -28.667 -7.5 -53.834 -22.5 -75.501s-37.833 -42.167 -68.5 -61.5
c0.666992 -0.666992 1.33398 -1.16699 2.00098 -1.5s1.33398 -0.833008 2.00098 -1.5c19.333 -14.667 33.666 -30.334 42.999 -47.001s14 -38.667 14 -66v-2c0 -44.667 -15.167 -78.834 -45.5 -102.501s-66.5 -38.834 -108.5 -45.501l-18.5 -2l-19.5 -2
c-4.66699 -0.666992 -9.16699 -1 -13.5 -1h-12.5h-11.5c-3.66699 0 -7.16699 0.333008 -10.5 1c-32.667 1.33301 -64.334 6.83301 -95.001 16.5s-57 22.834 -79 39.501v-1zM184.001 376.005c-17.333 -5.33301 -32.332 -15.5 -44.999 -30.5s-20.334 -30.833 -23.001 -47.5
c-0.666992 -2 -1 -3.83301 -1 -5.5v-5.5v-2c0 -0.666992 0.333008 -1 1 -1v-2v-2c0.666992 -2.66699 1.5 -5.66699 2.5 -9s2.16699 -6.33301 3.5 -9c10.667 -20 32.667 -39.5 66 -58.5s71 -34.833 113 -47.5l17 13.5c5.33301 4.33301 10.333 8.83301 15 13.5
c8.66699 8.66699 15.5 17.667 20.5 27s7.5 19.333 7.5 30c0 4 -0.333008 8.16699 -1 12.5s-1.66699 8.83301 -3 13.5c-0.666992 1.33301 -1.16699 2.83301 -1.5 4.5s-0.833008 3.16699 -1.5 4.5c-7.33301 18 -24.5 35 -51.5 51s-56.167 29.333 -87.5 40
c-5.33301 2 -10.5 3.83301 -15.5 5.5s-10.167 3.16699 -15.5 4.5v0z" />
    <glyph glyph-name="H" unicode="&#xa8;" horiz-adv-x="492" 
d="M46 0v605h414v-85h-306v-137h326v-84h-326v-215h326v-84h-434v0zM117 644v78h86v-78h-86v0zM307 644v78h87v-78h-87v0z" />
    <glyph glyph-name="I" unicode="&#xa9;" horiz-adv-x="671" 
d="M655 300c0 -98.667 -31.8311 -174.498 -95.498 -227.498s-138.834 -79.5 -225.501 -79.5s-161.834 26.5 -225.501 79.5s-95.834 128.833 -96.501 227.5c0 97.333 32 173.666 96 228.999s139.333 83 226 83s161.834 -27.833 225.501 -83.5s95.5 -131.834 95.5 -228.501v0z
M334.002 52.002c80.667 0 142.668 24.833 186.001 74.5s65 107.834 65 174.501c0 70.667 -22 130.5 -66 179.5s-105.667 73.5 -185 73.5c-78.667 0 -140.334 -24.5 -185.001 -73.5s-67 -108.167 -67 -177.5l1 -2c0 -66.667 21.667 -124.834 65 -174.501
s105.333 -74.5 186 -74.5v0zM165.003 303.002c0 58 16.666 101.667 49.999 131s72.333 44 117 44c8 0 16.333 -0.5 25 -1.5s17.334 -2.5 26.001 -4.5c15.333 -4 30.5 -9.5 45.5 -16.5s29.167 -15.833 42.5 -26.5l-24 -44c-3.33301 2 -6.5 4 -9.5 6s-6.16699 4 -9.5 6
c-15.333 9.33301 -30.5 16 -45.5 20s-29.5 6 -43.5 6c-33.333 0 -61.5 -11 -84.5 -33s-34.5 -50.667 -34.5 -86c0 -34.667 12 -64.667 36 -90s52.667 -38 86 -38c9.33301 0 18.833 1.16699 28.5 3.5s19.5 5.83301 29.5 10.5c8 4 16 8.83301 24 14.5s15.667 12.167 23 19.5
l36 -36c-16 -19.333 -35.833 -34.5 -59.5 -45.5s-48.167 -17.167 -73.5 -18.5h-3.5h-3.5h-2.5h-3.5c-42.667 1.33301 -82 17 -118 47s-54 74 -54 132v0z" />
    <glyph glyph-name="J" unicode="&#xaa;" horiz-adv-x="605" 
d="M130 299l0.00292969 -3.00098v-4c-0.666992 -1.33301 -1 -2.5 -1 -3.5v-3.5c0 -57.333 20.167 -106 60.5 -146s90.833 -60 151.5 -60c30 0 62 5.83301 96 17.5s68.333 30.167 103 55.5l52 -74c-30.667 -25.333 -65 -45 -103 -59s-76.667 -22.667 -116 -26
c-5.33301 0 -10.5 -0.166992 -15.5 -0.5s-10.167 -0.5 -15.5 -0.5c-82 0 -156 25.667 -222 77s-99 129.333 -99 234c0 100.667 33.167 177.167 99.5 229.5s141.833 78.5 226.5 78.5c10.667 0 21.167 -0.333008 31.5 -1s20.833 -2 31.5 -4
c31.333 -4.66699 62.5 -13.167 93.5 -25.5s60.167 -28.166 87.5 -47.499l-51 -71c-34.667 23.333 -68.834 40.333 -102.501 51s-65.167 16 -94.5 16c-50.667 0 -94.334 -13.5 -131.001 -40.5s-60.334 -62.167 -71.001 -105.5h274v-84h-285v0z" />
    <glyph glyph-name="ampersand" unicode="&#xab;" horiz-adv-x="568" 
d="M129 317l179 -109v-94l-279 152v102l279 151v-95l-179 -107v0zM535 208v-94l-279 152v102l279 151v-95l-179 -107l179 -109v0z" />
    <glyph glyph-name="quotesingle" unicode="&#xac;" horiz-adv-x="605" 
d="M544 383v-273h-107v204h-388v69h495v0z" />
    <glyph glyph-name="daggerdbl" unicode="&#xad;" horiz-adv-x="463" 
d="M42 383h376v-69h-376v69v0z" />
    <glyph glyph-name="dagger" unicode="&#xae;" horiz-adv-x="671" 
d="M334 612c86.667 0 161.836 -27.8311 225.503 -83.498s95.5 -131.834 95.5 -228.501c0 -98.667 -31.833 -174.5 -95.5 -227.5s-138.834 -79.5 -225.501 -79.5s-161.834 26.5 -225.501 79.5s-95.834 128.833 -96.501 227.5c0 97.333 32 173.666 96 228.999
s139.333 83 226 83v0zM334.002 52.002c80.667 0 142.668 24.833 186.001 74.5s65 107.834 65 174.501c0 70.667 -22 130.5 -66 179.5s-105.667 73.5 -185 73.5c-78.667 0 -140.334 -24.5 -185.001 -73.5s-67 -108.167 -67 -177.5l1 -2
c0 -66.667 21.667 -124.834 65 -174.501s105.333 -74.5 186 -74.5v0zM221.003 146.002l0.00195312 319.998h133c32 0 56.167 -7.66699 72.5 -23s25.5 -32 27.5 -50v-4v-4c0 -15.333 -5 -29.666 -15 -42.999s-24.667 -21.666 -44 -24.999c2 -0.666992 9.5 -10.167 22.5 -28.5
l92.5 -136.5l-57 -11c-48.667 71.333 -79.834 116.333 -93.501 135s-22.834 28 -27.501 28h-53v-158h-58v0zM280.005 422v-73.001h73c16 0 27.833 3.83301 35.5 11.5s11.5 15.834 11.5 24.501v1.5v1.5c-0.666992 8.66699 -5 16.5 -13 23.5s-19 10.5 -33 10.5h-74v0z" />
    <glyph glyph-name="macron" unicode="&#xaf;" horiz-adv-x="198" 
d="M146 0h-107v605h107v-605v0zM-19 625v78h86v-78h-86v0zM120 625v78h86v-78h-86v0z" />
    <glyph glyph-name="zero" unicode="&#xb0;" horiz-adv-x="407" 
d="M201 334c-40.667 0 -78 13 -112 39s-51 65 -51 117c0 51.333 17 90 51 116s71.333 39 112 39h1.5h1.5c40 -0.666992 76.667 -14 110 -40s50 -64.333 50 -115c0 -51.333 -16.667 -90 -50 -116s-70 -39.333 -110 -40h-1.5h-1.5v0zM116 490
c0 -26 6.83301 -47.833 20.5 -65.5s35.167 -26.5 64.5 -26.5s50.833 8.83301 64.5 26.5s20.5 39.5 20.5 65.5c0 25.333 -6.83301 46.833 -20.5 64.5s-35.167 26.5 -64.5 26.5s-50.833 -8.83301 -64.5 -26.5s-20.5 -39.167 -20.5 -64.5v0z" />
    <glyph glyph-name="at" unicode="&#xb1;" horiz-adv-x="407" 
d="M391 76h-377v61h377v-61v0zM14 369h146v128h70v-128h161v-61h-161v-140h-70v140h-146v61v0z" />
    <glyph glyph-name="P" unicode="&#xb2;" horiz-adv-x="208" 
d="M156 0h-108v605h108v-605v0zM48 625v78h108v-78h-108v0z" />
    <glyph glyph-name="S" unicode="&#xb3;" horiz-adv-x="180" 
d="M127 0h-87v464h87v-464v0zM40 592h87v-78h-87v78v0z" />
    <glyph glyph-name="T" unicode="&#xb4;" horiz-adv-x="236" 
d="M91 624h112l-100 -134h-73l61 134v0z" />
    <glyph glyph-name="U" unicode="&#xb5;" horiz-adv-x="350" 
d="M123 391v-391h-87v464h238l86 52v-125h-237v0z" />
    <glyph glyph-name="V" unicode="&#xb6;" horiz-adv-x="454" 
d="M166 209c-38 15.333 -70.333 41.832 -97 79.499s-44.667 77.834 -54 120.501c-2.66699 10 -4.5 19.833 -5.5 29.5s-1.5 19.167 -1.5 28.5c0 42.667 12.333 79.667 37 111s65 47 121 47h90v-854h-90v438v0zM313 -229.001v854h90v-854h-90v0z" />
    <glyph glyph-name="quoteleft" unicode="&#xb8;" horiz-adv-x="520" 
d="M110 250c0 -1.33301 -0.166016 -2.66797 -0.499023 -4.00098s-0.5 -3 -0.5 -5v-1v-2c-0.666992 -0.666992 -1 -1.5 -1 -2.5v-3.5c0 -35.333 9.5 -67.5 28.5 -96.5s44.833 -48.5 77.5 -58.5c4.66699 -1.33301 9.16699 -2.5 13.5 -3.5s8.83301 -1.83301 13.5 -2.5
c4 -0.666992 8.16699 -1.16699 12.5 -1.5s8.83301 -0.5 13.5 -0.5c36 0 70.333 8.83301 103 26.5s58 38.834 76 63.501l64 -62c-32 -36 -66.333 -61.5 -103 -76.5s-73.667 -23.833 -111 -26.5c-4.66699 0 -9.5 -0.166992 -14.5 -0.5s-10.167 -0.5 -15.5 -0.5
c-85.333 0 -149.5 24.833 -192.5 74.5s-64.833 104.5 -65.5 164.5v1.5v1.5v4v5c2 58.667 24.667 112.667 68 162s106.666 74 189.999 74c8 0 16.333 -0.5 25 -1.5s17.334 -2.5 26.001 -4.5c45.333 -10 87.166 -33.833 125.499 -71.5s57.5 -88.5 57.5 -152.5h-390v0z
M399.001 323.998c-8 17.333 -21.168 32.999 -39.501 46.999s-37.5 24 -57.5 30c-5.33301 1.33301 -10.833 2.5 -16.5 3.5s-11.167 1.5 -16.5 1.5h-2c-8 0 -16.5 -0.833008 -25.5 -2.5s-17.833 -4.16699 -26.5 -7.5c-18 -6 -35.167 -15.167 -51.5 -27.5
s-29.166 -27.166 -38.499 -44.499h274v0zM158 591.997v-78h-86v78h86v0zM455 513.997h-87v78h87v-78v0z" />
    <glyph glyph-name="one" unicode="&#xb9;" horiz-adv-x="908" 
d="M741 -12c-40.667 0.666992 -78 13.834 -112 39.501s-51 64.5 -51 116.5c0 51.333 17 90 51 116s71.333 39 112 39h1.5h1.5c40 -0.666992 76.667 -14 110 -40s50 -64.333 50 -115c0 -51.333 -16.667 -89.833 -50 -115.5s-70 -38.834 -110 -39.501h-1.5h-1.5v-1zM656 144
c0 -26 7 -47.667 21 -65s35.333 -26 64 -26c29.333 0 50.833 8.66699 64.5 26s20.5 39 20.5 65c0 25.333 -6.83301 46.833 -20.5 64.5s-35.167 26.5 -64.5 26.5c-28.667 0 -50 -8.83301 -64 -26.5s-21 -39.167 -21 -64.5v0zM50 605h113l283 -295v295h107v-605h-107v163
l-288 303v-466h-108v605v0z" />
    <glyph glyph-name="G" unicode="&#xba;" horiz-adv-x="463" 
d="M453 39c-21.333 -13.333 -44.501 -23.6689 -69.501 -31.002s-50.167 -12 -75.5 -14c-4.66699 0 -9.33398 -0.166992 -14.001 -0.5s-9.33398 -0.5 -14.001 -0.5c-68 0 -129.167 20.333 -183.5 61s-81.5 101.334 -81.5 182.001c0 50.667 12.667 94.834 38 132.501
s55.666 65.834 90.999 84.501c14 5.33301 28.167 9.83301 42.5 13.5s28.833 6.16699 43.5 7.5c6.66699 1.33301 13.667 2.16602 21 2.49902s14.666 0.5 21.999 0.5c34.667 0 67.834 -4.66699 99.501 -14s58.834 -22 81.501 -38l-39 -62
c-5.33301 3.33301 -10.833 6.33301 -16.5 9l-17.5 8c-19.333 8.66699 -38.666 15.167 -57.999 19.5s-37.666 6.5 -54.999 6.5c-32.667 0 -61.5 -7 -86.5 -21s-42.833 -34.333 -53.5 -61h244v-74h-259c0 -0.666992 -0.166992 -1.66699 -0.5 -3s-0.5 -3 -0.5 -5v-0.5v-0.5
c-0.666992 -1.33301 -1 -2.5 -1 -3.5v-3.5c0 -4 0.166992 -8.16699 0.5 -12.5s0.833008 -8.83301 1.5 -13.5c6.66699 -34.667 24.5 -66.5 53.5 -95.5s67.167 -43.5 114.5 -43.5c19.333 0 40.333 3.33301 63 10s46.334 17 71.001 31l38 -71v0z" />
    <glyph glyph-name="bracketleft" unicode="&#xbb;" horiz-adv-x="568" 
d="M30 208l179 109l-179 107v95l280 -151v-102l-280 -152v94v0zM436 317l-179 107v95l280 -151v-102l-280 -152v94l179 109v0z" />
    <glyph glyph-name="w" unicode="&#xbc;" horiz-adv-x="482" 
d="M191 239h96v-87h-96v87v0zM49 383h376v-69h-376v69v0zM191 529h96v-87h-96v87v0z" />
    <glyph glyph-name="bracketright" unicode="&#xbd;" 
d="M168 365l74 84l78 -41l-95 -105l104 -115l-76 -42l-84 93l-85 -93l-76 42l103 115l-96 105l78 41l75 -84v0z" />
    <glyph glyph-name="R" unicode="&#xbe;" horiz-adv-x="454" 
d="M43 0v86h97v-86h-97v0zM174 86h96v-86h-96v86v0zM402 86v-86h-97v86h97v0z" />
    <glyph glyph-name="underscore" unicode="&#xbf;" horiz-adv-x="227" 
d="M68 464h87v-464h-87v464v0zM85 514h-87v78h87v-78v0zM224 514h-87v78h87v-78v0z" />
    <glyph glyph-name="grave" unicode="&#xc0;" horiz-adv-x="653" 
d="M130 299h-66v84h102l89 222h143l241 -605h-119l-114 299h-172l-116 -299h-107l119 299v0zM269 383h107l-53 136l-54 -136v0z" />
    <glyph glyph-name="grave" unicode="&#x410;" horiz-adv-x="653" 
d="M130 299h-66v84h102l89 222h143l241 -605h-119l-114 299h-172l-116 -299h-107l119 299v0zM269 383h107l-53 136l-54 -136v0z" />
    <glyph glyph-name="a" unicode="&#xc1;" horiz-adv-x="558" 
d="M46 0v605h380v-85h-273v-137h157c75.333 0 132.666 -19 171.999 -57s60.333 -80 63 -126v-4v-4c0 -48 -19.667 -92 -59 -132s-98.666 -60 -177.999 -60h-262v0zM296 84c45.333 0 79.167 11.332 101.5 33.999s33.5 47.334 33.5 74.001v1.5v1.5
c-0.666992 26 -12.167 49.833 -34.5 71.5s-55.5 32.5 -99.5 32.5h-144v-215h143v0z" />
    <glyph glyph-name="a" unicode="&#x411;" horiz-adv-x="558" 
d="M46 0v605h380v-85h-273v-137h157c75.333 0 132.666 -19 171.999 -57s60.333 -80 63 -126v-4v-4c0 -48 -19.667 -92 -59 -132s-98.666 -60 -177.999 -60h-262v0zM296 84c45.333 0 79.167 11.332 101.5 33.999s33.5 47.334 33.5 74.001v1.5v1.5
c-0.666992 26 -12.167 49.833 -34.5 71.5s-55.5 32.5 -99.5 32.5h-144v-215h143v0z" />
    <glyph glyph-name="b" unicode="&#xc2;" horiz-adv-x="624" 
d="M47 0l-0.000976562 605.001h304c48.667 0 86.834 -14.167 114.501 -42.5s41.5 -59.5 41.5 -93.5v-5.5v-4.5c-2 -16.667 -7.33301 -33.167 -16 -49.5s-21.667 -30.833 -39 -43.5c43.333 -8 77.5 -27.167 102.5 -57.5s39.167 -62.5 42.5 -96.5
c0.666992 -2.66699 1 -5.5 1 -8.5v-8.5c0 -50.667 -17.5 -95.834 -52.5 -135.501s-80.833 -59.5 -137.5 -59.5h-361v0zM153.999 299.001l0.000976562 -215.001h220c35.333 0 63.666 11.333 84.999 34s32.333 47.334 33 74.001v1.5v1.5v1c0 26.667 -10.833 50.5 -32.5 71.5
s-51.167 31.5 -88.5 31.5h-217v0zM154 520v-137.001h173c26 0 45.667 6.83301 59 20.5s20.333 28.834 21 45.501v1.5v1.5c0 17.333 -6.5 33 -19.5 47s-33.167 21 -60.5 21h-173v0z" />
    <glyph glyph-name="b" unicode="&#x412;" horiz-adv-x="624" 
d="M47 0l-0.000976562 605.001h304c48.667 0 86.834 -14.167 114.501 -42.5s41.5 -59.5 41.5 -93.5v-5.5v-4.5c-2 -16.667 -7.33301 -33.167 -16 -49.5s-21.667 -30.833 -39 -43.5c43.333 -8 77.5 -27.167 102.5 -57.5s39.167 -62.5 42.5 -96.5
c0.666992 -2.66699 1 -5.5 1 -8.5v-8.5c0 -50.667 -17.5 -95.834 -52.5 -135.501s-80.833 -59.5 -137.5 -59.5h-361v0zM153.999 299.001l0.000976562 -215.001h220c35.333 0 63.666 11.333 84.999 34s32.333 47.334 33 74.001v1.5v1.5v1c0 26.667 -10.833 50.5 -32.5 71.5
s-51.167 31.5 -88.5 31.5h-217v0zM154 520v-137.001h173c26 0 45.667 6.83301 59 20.5s20.333 28.834 21 45.501v1.5v1.5c0 17.333 -6.5 33 -19.5 47s-33.167 21 -60.5 21h-173v0z" />
    <glyph glyph-name="c" unicode="&#xc3;" horiz-adv-x="407" 
d="M412 605v-85h-258v-520h-107v605h365v0z" />
    <glyph glyph-name="c" unicode="&#x413;" horiz-adv-x="407" 
d="M412 605v-85h-258v-520h-107v605h365v0z" />
    <glyph glyph-name="d" unicode="&#xc4;" horiz-adv-x="653" 
d="M117 0l42.999 -143l-111 -7l-43 150c0 0.666992 -0.166992 1.5 -0.5 2.5s-0.5 2.16699 -0.5 3.5c-0.666992 0.666992 -1 1.5 -1 2.5v3.5c-0.666992 0.666992 -1 1.66699 -1 3v3v1.5v1.5c0.666992 15.333 7.66699 29.5 21 42.5s34 19.833 62 20.5l129 415
c0 1.33301 0.333008 2.83301 1 4.5s1.66699 3.5 3 5.5c0.666992 1.33301 1.16699 2.5 1.5 3.5s0.833008 1.83301 1.5 2.5c0.666992 1.33301 1.33398 2.33301 2.00098 3l2 2h-65v85h407v-521c28 -0.666992 48.5 -7.5 61.5 -20.5s19.833 -27.167 20.5 -42.5v-1.5v-1.5v-3v-3
c-0.666992 -2 -1 -4 -1 -6s-0.333008 -4 -1 -6l-43 -150l-111 7l43 143h-420v0zM194.999 84l265 -0.000976562v436h-119h-2h-1c-4 -0.666992 -7.83301 -2.66699 -11.5 -6s-6.16699 -7.66602 -7.5 -12.999l-124 -417v0z" />
    <glyph glyph-name="d" unicode="&#x414;" horiz-adv-x="653" 
d="M117 0l42.999 -143l-111 -7l-43 150c0 0.666992 -0.166992 1.5 -0.5 2.5s-0.5 2.16699 -0.5 3.5c-0.666992 0.666992 -1 1.5 -1 2.5v3.5c-0.666992 0.666992 -1 1.66699 -1 3v3v1.5v1.5c0.666992 15.333 7.66699 29.5 21 42.5s34 19.833 62 20.5l129 415
c0 1.33301 0.333008 2.83301 1 4.5s1.66699 3.5 3 5.5c0.666992 1.33301 1.16699 2.5 1.5 3.5s0.833008 1.83301 1.5 2.5c0.666992 1.33301 1.33398 2.33301 2.00098 3l2 2h-65v85h407v-521c28 -0.666992 48.5 -7.5 61.5 -20.5s19.833 -27.167 20.5 -42.5v-1.5v-1.5v-3v-3
c-0.666992 -2 -1 -4 -1 -6s-0.333008 -4 -1 -6l-43 -150l-111 7l43 143h-420v0zM194.999 84l265 -0.000976562v436h-119h-2h-1c-4 -0.666992 -7.83301 -2.66699 -11.5 -6s-6.16699 -7.66602 -7.5 -12.999l-124 -417v0z" />
    <glyph glyph-name="e" unicode="&#xc5;" horiz-adv-x="501" 
d="M46 0v605h414v-85h-306v-137h326v-84h-326v-215h326v-84h-434v0z" />
    <glyph glyph-name="e" unicode="&#x415;" horiz-adv-x="501" 
d="M46 0v605h414v-85h-306v-137h326v-84h-326v-215h326v-84h-434v0z" />
    <glyph glyph-name="f" unicode="&#xc6;" horiz-adv-x="983" 
d="M117 -9l-118.999 9.99707l232 346c4.66699 6.66699 11.834 12.834 21.501 18.501s20.167 9.83398 31.5 12.501c3.33301 1.33301 6.66602 2.16602 9.99902 2.49902s6.66602 0.5 9.99902 0.5h5l-219 224h126l220 -223v223h109v-223l220 223h126l-224 -224h4
c4 0 8.5 -0.333008 13.5 -1s9.83301 -1.66699 14.5 -3c10.667 -3.33301 20.834 -7.66602 30.501 -12.999s16.5 -11 20.5 -17l232 -346l-119 -10l-166 258c-1.33301 2 -2.5 3.66699 -3.5 5s-1.83301 3 -2.5 5c-10.667 14.667 -21.5 25 -32.5 31s-23.833 9 -38.5 9h-75v-299
h-109v299h-75c-12.667 0 -23.834 -2.16699 -33.501 -6.5s-19.167 -11.833 -28.5 -22.5c-2.66699 -3.33301 -5.16699 -6.66602 -7.5 -9.99902l-7.5 -11l-166 -258v0z" />
    <glyph glyph-name="f" unicode="&#x416;" horiz-adv-x="983" 
d="M117 -9l-118.999 9.99707l232 346c4.66699 6.66699 11.834 12.834 21.501 18.501s20.167 9.83398 31.5 12.501c3.33301 1.33301 6.66602 2.16602 9.99902 2.49902s6.66602 0.5 9.99902 0.5h5l-219 224h126l220 -223v223h109v-223l220 223h126l-224 -224h4
c4 0 8.5 -0.333008 13.5 -1s9.83301 -1.66699 14.5 -3c10.667 -3.33301 20.834 -7.66602 30.501 -12.999s16.5 -11 20.5 -17l232 -346l-119 -10l-166 258c-1.33301 2 -2.5 3.66699 -3.5 5s-1.83301 3 -2.5 5c-10.667 14.667 -21.5 25 -32.5 31s-23.833 9 -38.5 9h-75v-299
h-109v299h-75c-12.667 0 -23.834 -2.16699 -33.501 -6.5s-19.167 -11.833 -28.5 -22.5c-2.66699 -3.33301 -5.16699 -6.66602 -7.5 -9.99902l-7.5 -11l-166 -258v0z" />
    <glyph glyph-name="g" unicode="&#xc7;" horiz-adv-x="539" 
d="M81 605l186.003 -0.000976562l1 -1c48.667 0 86.834 -14 114.501 -42s41.5 -59 41.5 -93v-5.5v-4.5c-2 -16.667 -7.33301 -33.167 -16 -49.5s-21.667 -30.833 -39 -43.5c43.333 -8 77.666 -27.167 102.999 -57.5s39.666 -62.5 42.999 -96.5
c0.666992 -2.66699 1 -5.5 1 -8.5v-8.5c-0.666992 -50.667 -18.334 -95.834 -53.001 -135.501s-80.667 -59.5 -138 -59.5h-306v84h270c35.333 0 64 11.333 86 34s33.333 47.334 34 74.001v1.5v1.5v1c0 26.667 -10.833 50.5 -32.5 71.5s-50.834 31.5 -87.501 31.5h-270v84
h226c26 0 45.5 6.83301 58.5 20.5s19.833 28.834 20.5 45.501v1.5v1.5c0 17.333 -6.5 33 -19.5 47s-32.833 21 -59.5 21h-164v85v0z" />
    <glyph glyph-name="g" unicode="&#x417;" horiz-adv-x="539" 
d="M81 605l186.003 -0.000976562l1 -1c48.667 0 86.834 -14 114.501 -42s41.5 -59 41.5 -93v-5.5v-4.5c-2 -16.667 -7.33301 -33.167 -16 -49.5s-21.667 -30.833 -39 -43.5c43.333 -8 77.666 -27.167 102.999 -57.5s39.666 -62.5 42.999 -96.5
c0.666992 -2.66699 1 -5.5 1 -8.5v-8.5c-0.666992 -50.667 -18.334 -95.834 -53.001 -135.501s-80.667 -59.5 -138 -59.5h-306v84h270c35.333 0 64 11.333 86 34s33.333 47.334 34 74.001v1.5v1.5v1c0 26.667 -10.833 50.5 -32.5 71.5s-50.834 31.5 -87.501 31.5h-270v84
h226c26 0 45.5 6.83301 58.5 20.5s19.833 28.834 20.5 45.501v1.5v1.5c0 17.333 -6.5 33 -19.5 47s-32.833 21 -59.5 21h-164v85v0z" />
    <glyph glyph-name="h" unicode="&#xc8;" horiz-adv-x="595" 
d="M547 605v-605h-108v473l-286 -306v-167h-107v605h107v-302l286 302h108v0z" />
    <glyph glyph-name="h" unicode="&#x418;" horiz-adv-x="595" 
d="M547 605v-605h-108v473l-286 -306v-167h-107v605h107v-302l286 302h108v0z" />
    <glyph glyph-name="i" unicode="&#xc9;" horiz-adv-x="595" 
d="M547 605v-605h-108v473l-286 -306v-167h-107v605h107v-302l286 302h108v0zM155 721h276v-77h-276v77v0z" />
    <glyph glyph-name="i" unicode="&#x419;" horiz-adv-x="595" 
d="M547 605v-605h-108v473l-286 -306v-167h-107v605h107v-302l286 302h108v0zM155 721h276v-77h-276v77v0z" />
    <glyph glyph-name="j" unicode="&#xca;" horiz-adv-x="595" 
d="M473 -9l-166 258.001l-7.5 11c-2.33301 3.33301 -4.83301 6.66602 -7.5 9.99902c-9.33301 10.667 -18.833 18.167 -28.5 22.5s-20.834 6.5 -33.501 6.5h-75v-299h-108v605h108v-223l220 223h126l-222 -221c20 -2.66699 37.833 -8.5 53.5 -17.5
s26.834 -18.833 33.501 -29.5l226 -336l-119 -10v0z" />
    <glyph glyph-name="j" unicode="&#x41a;" horiz-adv-x="595" 
d="M473 -9l-166 258.001l-7.5 11c-2.33301 3.33301 -4.83301 6.66602 -7.5 9.99902c-9.33301 10.667 -18.833 18.167 -28.5 22.5s-20.834 6.5 -33.501 6.5h-75v-299h-108v605h108v-223l220 223h126l-222 -221c20 -2.66699 37.833 -8.5 53.5 -17.5
s26.834 -18.833 33.501 -29.5l226 -336l-119 -10v0z" />
    <glyph glyph-name="k" unicode="&#xcb;" horiz-adv-x="568" 
d="M263 501l-148.002 -508.001l-109 7l155 505c0.666992 0.666992 1.16699 1.5 1.5 2.5s0.833008 2.16699 1.5 3.5c1.33301 2 3 3.83301 5 5.5s4 2.83398 6 3.50098h-69v85h405v-605h-107v520h-118c-5.33301 0 -10.166 -1.83301 -14.499 -5.5
s-7.16602 -8.16699 -8.49902 -13.5v0z" />
    <glyph glyph-name="k" unicode="&#x41b;" horiz-adv-x="568" 
d="M263 501l-148.002 -508.001l-109 7l155 505c0.666992 0.666992 1.16699 1.5 1.5 2.5s0.833008 2.16699 1.5 3.5c1.33301 2 3 3.83301 5 5.5s4 2.83398 6 3.50098h-69v85h405v-605h-107v520h-118c-5.33301 0 -10.166 -1.83301 -14.499 -5.5
s-7.16602 -8.16699 -8.49902 -13.5v0z" />
    <glyph glyph-name="l" unicode="&#xcc;" horiz-adv-x="737" 
d="M692 0h-107v454l-186 -269h-58l-187 269v-454h-107v605h116l206 -288l205 288h118v-605v0z" />
    <glyph glyph-name="l" unicode="&#x41c;" horiz-adv-x="737" 
d="M692 0h-107v454l-186 -269h-58l-187 269v-454h-107v605h116l206 -288l205 288h118v-605v0z" />
    <glyph glyph-name="m" unicode="&#xcd;" horiz-adv-x="605" 
d="M551 605v-605h-107v299h-277v-299h-108v299h-48v84h48v222h108v-222h277v222h107v0z" />
    <glyph glyph-name="m" unicode="&#x41d;" horiz-adv-x="605" 
d="M551 605v-605h-107v299h-277v-299h-108v299h-48v84h48v222h108v-222h277v222h107v0z" />
    <glyph glyph-name="n" unicode="&#xce;" horiz-adv-x="671" 
d="M657 303c0 -98.667 -31.668 -175.168 -95.001 -229.501s-138.666 -81.5 -225.999 -81.5c-86.667 0 -162.167 27 -226.5 81s-96.5 130.333 -96.5 229s32 175.334 96 230.001s139.333 82 226 82c87.333 0 162.833 -27.167 226.5 -81.5s95.5 -130.833 95.5 -229.5v0z
M548.999 300.999c0 70 -21.501 124.667 -64.501 164s-93.167 59 -150.5 59c-56 0 -105.667 -19.5 -149 -58.5s-65 -93.167 -65 -162.5l1 -2c0.666992 -70.667 22.5 -125.167 65.5 -163.5s92.833 -57.5 149.5 -57.5s106.334 19.167 149.001 57.5s64 92.833 64 163.5v0z" />
    <glyph glyph-name="n" unicode="&#x41e;" horiz-adv-x="671" 
d="M657 303c0 -98.667 -31.668 -175.168 -95.001 -229.501s-138.666 -81.5 -225.999 -81.5c-86.667 0 -162.167 27 -226.5 81s-96.5 130.333 -96.5 229s32 175.334 96 230.001s139.333 82 226 82c87.333 0 162.833 -27.167 226.5 -81.5s95.5 -130.833 95.5 -229.5v0z
M548.999 300.999c0 70 -21.501 124.667 -64.501 164s-93.167 59 -150.5 59c-56 0 -105.667 -19.5 -149 -58.5s-65 -93.167 -65 -162.5l1 -2c0.666992 -70.667 22.5 -125.167 65.5 -163.5s92.833 -57.5 149.5 -57.5s106.334 19.167 149.001 57.5s64 92.833 64 163.5v0z" />
    <glyph glyph-name="o" unicode="&#xcf;" horiz-adv-x="595" 
d="M542 605v-605h-107v520h-278v-520h-108v605h493v0z" />
    <glyph glyph-name="o" unicode="&#x41f;" horiz-adv-x="595" 
d="M542 605v-605h-107v520h-278v-520h-108v605h493v0z" />
    <glyph glyph-name="p" unicode="&#xd0;" horiz-adv-x="539" 
d="M47 0v605h246c69.333 0 123.833 -14.5 163.5 -43.5s59.5 -69.167 59.5 -120.5c0 -52.667 -16.5 -95.167 -49.5 -127.5s-83.833 -48.5 -152.5 -48.5h-160v-265h-107v0zM154 520v-171h155c34 0 59.667 8.66699 77 26s26 36.333 26 57c0 22 -9.33301 42.167 -28 60.5
s-47 27.5 -85 27.5h-145v0z" />
    <glyph glyph-name="p" unicode="&#x420;" horiz-adv-x="539" 
d="M47 0v605h246c69.333 0 123.833 -14.5 163.5 -43.5s59.5 -69.167 59.5 -120.5c0 -52.667 -16.5 -95.167 -49.5 -127.5s-83.833 -48.5 -152.5 -48.5h-160v-265h-107v0zM154 520v-171h155c34 0 59.667 8.66699 77 26s26 36.333 26 57c0 22 -9.33301 42.167 -28 60.5
s-47 27.5 -85 27.5h-145v0z" />
    <glyph glyph-name="q" unicode="&#xd1;" horiz-adv-x="595" 
d="M124 304c0 -61.333 18.8291 -115.001 56.4961 -161.001s88.834 -69 153.501 -69c28.667 0 59.834 5.66699 93.501 17s69.167 29.333 106.5 54l51 -67c-30.667 -25.333 -65 -45 -103 -59s-76.667 -22.667 -116 -26c-5.33301 0 -10.666 -0.166992 -15.999 -0.5
s-10.666 -0.5 -15.999 -0.5c-82 0 -156 25.667 -222 77s-99 129.333 -99 234c0 100.667 33.167 177.167 99.5 229.5s141.833 78.5 226.5 78.5c10.667 0 21.167 -0.333008 31.5 -1s20.833 -2 31.5 -4c31.333 -4.66699 62.5 -13.167 93.5 -25.5s60.167 -28.166 87.5 -47.499
l-51 -71c-33.333 22.667 -66.166 39.167 -98.499 49.5s-62.5 15.5 -90.5 15.5c-64.667 0 -117.334 -21.833 -158.001 -65.5s-61 -96.167 -61 -157.5v0z" />
    <glyph glyph-name="q" unicode="&#x421;" horiz-adv-x="595" 
d="M124 304c0 -61.333 18.8291 -115.001 56.4961 -161.001s88.834 -69 153.501 -69c28.667 0 59.834 5.66699 93.501 17s69.167 29.333 106.5 54l51 -67c-30.667 -25.333 -65 -45 -103 -59s-76.667 -22.667 -116 -26c-5.33301 0 -10.666 -0.166992 -15.999 -0.5
s-10.666 -0.5 -15.999 -0.5c-82 0 -156 25.667 -222 77s-99 129.333 -99 234c0 100.667 33.167 177.167 99.5 229.5s141.833 78.5 226.5 78.5c10.667 0 21.167 -0.333008 31.5 -1s20.833 -2 31.5 -4c31.333 -4.66699 62.5 -13.167 93.5 -25.5s60.167 -28.166 87.5 -47.499
l-51 -71c-33.333 22.667 -66.166 39.167 -98.499 49.5s-62.5 15.5 -90.5 15.5c-64.667 0 -117.334 -21.833 -158.001 -65.5s-61 -96.167 -61 -157.5v0z" />
    <glyph glyph-name="Scaron" unicode="&#xd2;" horiz-adv-x="501" 
d="M503 605v-85h-195v-520h-107v520h-195v85h497v0z" />
    <glyph glyph-name="Scaron" unicode="&#x422;" horiz-adv-x="501" 
d="M503 605v-85h-195v-520h-107v520h-195v85h497v0z" />
    <glyph glyph-name="r" unicode="&#xd3;" horiz-adv-x="624" 
d="M497 605h127l-453 -605h-118l200 273l-246 332h127l182 -252l181 252v0z" />
    <glyph glyph-name="r" unicode="&#x423;" horiz-adv-x="624" 
d="M497 605h127l-453 -605h-118l200 273l-246 332h127l182 -252l181 252v0z" />
    <glyph glyph-name="t" unicode="&#xd4;" horiz-adv-x="870" 
d="M380 0l0.00195312 265h-160c-68.667 0 -119.334 16.167 -152.001 48.5s-49 74.833 -49 127.5c0 51.333 19.667 91.5 59 120.5s93.666 43.5 162.999 43.5h387c69.333 0 123.833 -14.5 163.5 -43.5s59.5 -69.167 59.5 -120.5c0 -52.667 -16.5 -95.167 -49.5 -127.5
s-83.833 -48.5 -152.5 -48.5h-159v-265h-110v0zM380.002 520h-144c-38 0 -66.5 -9.16699 -85.5 -27.5s-28.5 -38.5 -28.5 -60.5c0 -20.667 8.83301 -39.667 26.5 -57s43.167 -26 76.5 -26h155v171v0zM490.002 520v-171h154c34 0 59.667 8.66699 77 26s26 36.333 26 57
c0 22 -9.33301 42.167 -28 60.5s-47 27.5 -85 27.5h-144v0z" />
    <glyph glyph-name="t" unicode="&#x424;" horiz-adv-x="870" 
d="M380 0l0.00195312 265h-160c-68.667 0 -119.334 16.167 -152.001 48.5s-49 74.833 -49 127.5c0 51.333 19.667 91.5 59 120.5s93.666 43.5 162.999 43.5h387c69.333 0 123.833 -14.5 163.5 -43.5s59.5 -69.167 59.5 -120.5c0 -52.667 -16.5 -95.167 -49.5 -127.5
s-83.833 -48.5 -152.5 -48.5h-159v-265h-110v0zM380.002 520h-144c-38 0 -66.5 -9.16699 -85.5 -27.5s-28.5 -38.5 -28.5 -60.5c0 -20.667 8.83301 -39.667 26.5 -57s43.167 -26 76.5 -26h155v171v0zM490.002 520v-171h154c34 0 59.667 8.66699 77 26s26 36.333 26 57
c0 22 -9.33301 42.167 -28 60.5s-47 27.5 -85 27.5h-144v0z" />
    <glyph glyph-name="u" unicode="&#xd5;" horiz-adv-x="633" 
d="M460 605h115l-201 -272l247 -333h-121l-185 259l-184 -259h-122l248 332l-201 273h112l147 -197l145 197v0z" />
    <glyph glyph-name="u" unicode="&#x425;" horiz-adv-x="633" 
d="M460 605h115l-201 -272l247 -333h-121l-185 259l-184 -259h-122l248 332l-201 273h112l147 -197l145 197v0z" />
    <glyph glyph-name="zero" unicode="&#xd6;" horiz-adv-x="624" 
d="M512 0h-465.999v605h108v-521h277v521h107v-518c28 -0.666992 48.667 -7.5 62 -20.5s20.666 -27.167 21.999 -42.5v-3.5v-2.5v-3c0 -1.33301 -0.333008 -2.33301 -1 -3v-3.5c0 -1 -0.333008 -1.83301 -1 -2.5c0 -1.33301 -0.166992 -2.5 -0.5 -3.5
s-0.5 -1.83301 -0.5 -2.5l-43 -150l-107 7l43 143v0z" />
    <glyph glyph-name="zero" unicode="&#x426;" horiz-adv-x="624" 
d="M512 0h-465.999v605h108v-521h277v521h107v-518c28 -0.666992 48.667 -7.5 62 -20.5s20.666 -27.167 21.999 -42.5v-3.5v-2.5v-3c0 -1.33301 -0.333008 -2.33301 -1 -3v-3.5c0 -1 -0.333008 -1.83301 -1 -2.5c0 -1.33301 -0.166992 -2.5 -0.5 -3.5
s-0.5 -1.83301 -0.5 -2.5l-43 -150l-107 7l43 143v0z" />
    <glyph glyph-name="parenright" unicode="&#xd7;" horiz-adv-x="577" 
d="M517 0l-106.999 0.000976562v265h-157c-56 0.666992 -99.333 12.667 -130 36s-51 50.333 -61 81l-62 223h108l54 -200c5.33301 -16.667 16.166 -29.834 32.499 -39.501s34.833 -15.167 55.5 -16.5h160v256h107v-605v0z" />
    <glyph glyph-name="parenright" unicode="&#x427;" horiz-adv-x="577" 
d="M517 0l-106.999 0.000976562v265h-157c-56 0.666992 -99.333 12.667 -130 36s-51 50.333 -61 81l-62 223h108l54 -200c5.33301 -16.667 16.166 -29.834 32.499 -39.501s34.833 -15.167 55.5 -16.5h160v256h107v-605v0z" />
    <glyph glyph-name="x" unicode="&#xd8;" horiz-adv-x="945" 
d="M45 0v605h106v-521h267v521h107v-521h266v521h107v-605h-853v0z" />
    <glyph glyph-name="x" unicode="&#x428;" horiz-adv-x="945" 
d="M45 0v605h106v-521h267v521h107v-521h266v521h107v-605h-853v0z" />
    <glyph glyph-name="y" unicode="&#xd9;" horiz-adv-x="983" 
d="M792 84v521h107v-521c28.667 -0.666992 49 -7.66699 61 -21s18.667 -28 20 -44v-3.5v-2.5v-3v-3c-0.666992 -1.33301 -1 -2.5 -1 -3.5v-3.5l-43 -150l-104 7l40 143h-826v605h107v-521h266v521h107v-521h266v0z" />
    <glyph glyph-name="y" unicode="&#x429;" horiz-adv-x="983" 
d="M792 84v521h107v-521c28.667 -0.666992 49 -7.66699 61 -21s18.667 -28 20 -44v-3.5v-2.5v-3v-3c-0.666992 -1.33301 -1 -2.5 -1 -3.5v-3.5l-43 -150l-104 7l40 143h-826v605h107v-521h266v521h107v-521h266v0z" />
    <glyph glyph-name="z" unicode="&#xda;" horiz-adv-x="633" 
d="M114 0l0.00195312 520h-118v85h226v-222h161c76.667 0 134.167 -19.833 172.5 -59.5s57.5 -83.167 57.5 -130.5v-1.5v-1.5c-0.666992 -47.333 -20.834 -90.833 -60.501 -130.5s-98.834 -59.5 -177.501 -59.5h-261v0zM222.002 299l0.000976562 -215.001h146
c45.333 0 79.166 11.333 101.499 34s33.5 47.334 33.5 74.001v1.5v1.5c-0.666992 26 -12 49.833 -34 71.5s-54.667 32.5 -98 32.5h-149v0z" />
    <glyph glyph-name="z" unicode="&#x42a;" horiz-adv-x="633" 
d="M114 0l0.00195312 520h-118v85h226v-222h161c76.667 0 134.167 -19.833 172.5 -59.5s57.5 -83.167 57.5 -130.5v-1.5v-1.5c-0.666992 -47.333 -20.834 -90.833 -60.501 -130.5s-98.834 -59.5 -177.501 -59.5h-261v0zM222.002 299l0.000976562 -215.001h146
c45.333 0 79.166 11.333 101.499 34s33.5 47.334 33.5 74.001v1.5v1.5c-0.666992 26 -12 49.833 -34 71.5s-54.667 32.5 -98 32.5h-149v0z" />
    <glyph glyph-name="braceleft" unicode="&#xdb;" horiz-adv-x="775" 
d="M48 605h107.001v-222h162c76 0 133.167 -19.833 171.5 -59.5s57.5 -83.167 57.5 -130.5v-1.5v-1.5c-0.666992 -47.333 -20.834 -90.833 -60.501 -130.5s-98.5 -59.5 -176.5 -59.5h-261v605v0zM301.001 84c45.333 0 79.167 11.332 101.5 33.999s33.5 47.334 33.5 74.001
v1.5v1.5c-0.666992 26 -12 49.833 -34 71.5s-55 32.5 -99 32.5h-148v-215h146v0zM726.002 -0.000976562h-107v605h107v-605v0z" />
    <glyph glyph-name="braceleft" unicode="&#x42b;" horiz-adv-x="775" 
d="M48 605h107.001v-222h162c76 0 133.167 -19.833 171.5 -59.5s57.5 -83.167 57.5 -130.5v-1.5v-1.5c-0.666992 -47.333 -20.834 -90.833 -60.501 -130.5s-98.5 -59.5 -176.5 -59.5h-261v605v0zM301.001 84c45.333 0 79.167 11.332 101.5 33.999s33.5 47.334 33.5 74.001
v1.5v1.5c-0.666992 26 -12 49.833 -34 71.5s-55 32.5 -99 32.5h-148v-215h146v0zM726.002 -0.000976562h-107v605h107v-605v0z" />
    <glyph glyph-name="bar" unicode="&#xdc;" horiz-adv-x="558" 
d="M46 605h108.002v-222h161c76.667 0 134.167 -19.833 172.5 -59.5s57.5 -83.167 57.5 -130.5v-1.5v-1.5c-0.666992 -47.333 -20.834 -90.833 -60.501 -130.5s-98.834 -59.5 -177.501 -59.5h-261v605v0zM154.002 84l146 -0.000976562c45.333 0 79.333 11.333 102 34
s34 47.334 34 74.001v1.5v1.5c-0.666992 26 -12.167 49.833 -34.5 71.5s-55.5 32.5 -99.5 32.5h-148v-215v0z" />
    <glyph glyph-name="bar" unicode="&#x42c;" horiz-adv-x="558" 
d="M46 605h108.002v-222h161c76.667 0 134.167 -19.833 172.5 -59.5s57.5 -83.167 57.5 -130.5v-1.5v-1.5c-0.666992 -47.333 -20.834 -90.833 -60.501 -130.5s-98.834 -59.5 -177.501 -59.5h-261v605v0zM154.002 84l146 -0.000976562c45.333 0 79.333 11.333 102 34
s34 47.334 34 74.001v1.5v1.5c-0.666992 26 -12.167 49.833 -34.5 71.5s-55.5 32.5 -99.5 32.5h-148v-215v0z" />
    <glyph glyph-name="braceright" unicode="&#xdd;" horiz-adv-x="595" 
d="M465 299l-283.001 0.000976562v84h270c-14.667 42 -40.334 76.5 -77.001 103.5s-79.667 40.5 -129 40.5c-28 0 -58.167 -5.16699 -90.5 -15.5s-65.166 -26.833 -98.499 -49.5l-51 71c28.667 20 58.834 36.167 90.501 48.5s63.834 20.833 96.501 25.5
c9.33301 1.33301 18.666 2.33301 27.999 3s18.666 1 27.999 1c85.333 0 161.166 -26.167 227.499 -78.5s99.5 -128.833 99.5 -229.5c0 -104.667 -33 -182.667 -99 -234s-140.333 -77 -223 -77h-11.5c-3.66699 0 -7.16699 0.333008 -10.5 1c-41.333 2 -81.666 10 -120.999 24
s-74.666 34.333 -105.999 61l52 74c37.333 -24.667 73.5 -42.834 108.5 -54.501s67.5 -17.5 97.5 -17.5c60.667 0 109.5 19.667 146.5 59s55.5 87.333 55.5 144v16v0z" />
    <glyph glyph-name="braceright" unicode="&#x42d;" horiz-adv-x="595" 
d="M465 299l-283.001 0.000976562v84h270c-14.667 42 -40.334 76.5 -77.001 103.5s-79.667 40.5 -129 40.5c-28 0 -58.167 -5.16699 -90.5 -15.5s-65.166 -26.833 -98.499 -49.5l-51 71c28.667 20 58.834 36.167 90.501 48.5s63.834 20.833 96.501 25.5
c9.33301 1.33301 18.666 2.33301 27.999 3s18.666 1 27.999 1c85.333 0 161.166 -26.167 227.499 -78.5s99.5 -128.833 99.5 -229.5c0 -104.667 -33 -182.667 -99 -234s-140.333 -77 -223 -77h-11.5c-3.66699 0 -7.16699 0.333008 -10.5 1c-41.333 2 -81.666 10 -120.999 24
s-74.666 34.333 -105.999 61l52 74c37.333 -24.667 73.5 -42.834 108.5 -54.501s67.5 -17.5 97.5 -17.5c60.667 0 109.5 19.667 146.5 59s55.5 87.333 55.5 144v16v0z" />
    <glyph glyph-name="asciitilde" unicode="&#xde;" horiz-adv-x="946" 
d="M67 0l0.000976562 299h-48v85h48v221h108v-222h111c17.333 74 55.166 131 113.499 171s124.833 60 199.5 60c87.333 0 162.833 -27.167 226.5 -81.5s95.5 -130.833 95.5 -229.5s-31.667 -175.167 -95 -229.5s-138.666 -81.5 -225.999 -81.5
c-86.667 0 -161.834 26.667 -225.501 80s-96.167 129 -97.5 227h-102v-299h-108v0zM813.001 301c0 70 -21.499 124.667 -64.499 164s-93.167 59 -150.5 59c-56 0 -105.5 -19.5 -148.5 -58.5s-64.5 -93.167 -64.5 -162.5v-2c0.666992 -70.667 22.5 -125.167 65.5 -163.5
s92.833 -57.5 149.5 -57.5c57.333 0 107.166 19.167 149.499 57.5s63.5 92.833 63.5 163.5v0z" />
    <glyph glyph-name="asciitilde" unicode="&#x42e;" horiz-adv-x="946" 
d="M67 0l0.000976562 299h-48v85h48v221h108v-222h111c17.333 74 55.166 131 113.499 171s124.833 60 199.5 60c87.333 0 162.833 -27.167 226.5 -81.5s95.5 -130.833 95.5 -229.5s-31.667 -175.167 -95 -229.5s-138.666 -81.5 -225.999 -81.5
c-86.667 0 -161.834 26.667 -225.501 80s-96.167 129 -97.5 227h-102v-299h-108v0zM813.001 301c0 70 -21.499 124.667 -64.499 164s-93.167 59 -150.5 59c-56 0 -105.5 -19.5 -148.5 -58.5s-64.5 -93.167 -64.5 -162.5v-2c0.666992 -70.667 22.5 -125.167 65.5 -163.5
s92.833 -57.5 149.5 -57.5c57.333 0 107.166 19.167 149.499 57.5s63.5 92.833 63.5 163.5v0z" />
    <glyph glyph-name="quotedblleft" unicode="&#xdf;" horiz-adv-x="586" 
d="M241 605l299 0.00195312v-605h-108v299h-98c-10 -2.66699 -30 -23.334 -60 -62.001s-84.667 -120.667 -164 -246l-106 21c68.667 110 118.167 186.5 148.5 229.5s51.5 67.167 63.5 72.5c-42 5.33301 -75.5 22.166 -100.5 50.499s-37.5 59.833 -37.5 94.5
c0 5.33301 0.333008 10.5 1 15.5s1.66699 10.167 3 15.5c3.33301 13.333 8.83301 26.833 16.5 40.5s17.834 26.167 30.501 37.5c13.333 12 29.166 21.167 47.499 27.5s39.833 9.5 64.5 9.5v0zM279 384.002l153.001 -0.999023v137h-161c-27.333 0 -48.333 -6.66699 -63 -20
s-22.334 -28 -23.001 -44v-1.5v-1.5v-1.5v-1.5c0.666992 -16.667 9 -31.834 25 -45.501s39 -20.5 69 -20.5v0z" />
    <glyph glyph-name="quotedblleft" unicode="&#x42f;" horiz-adv-x="586" 
d="M241 605l299 0.00195312v-605h-108v299h-98c-10 -2.66699 -30 -23.334 -60 -62.001s-84.667 -120.667 -164 -246l-106 21c68.667 110 118.167 186.5 148.5 229.5s51.5 67.167 63.5 72.5c-42 5.33301 -75.5 22.166 -100.5 50.499s-37.5 59.833 -37.5 94.5
c0 5.33301 0.333008 10.5 1 15.5s1.66699 10.167 3 15.5c3.33301 13.333 8.83301 26.833 16.5 40.5s17.834 26.167 30.501 37.5c13.333 12 29.166 21.167 47.499 27.5s39.833 9.5 64.5 9.5v0zM279 384.002l153.001 -0.999023v137h-161c-27.333 0 -48.333 -6.66699 -63 -20
s-22.334 -28 -23.001 -44v-1.5v-1.5v-1.5v-1.5c0.666992 -16.667 9 -31.834 25 -45.501s39 -20.5 69 -20.5v0z" />
    <glyph glyph-name="equal" unicode="&#xe0;" horiz-adv-x="463" 
d="M89 451c10 4 20.3232 7.33301 30.9902 10s21.334 5 32.001 7c14.667 2.66699 29.334 4.66699 44.001 6s29 2 43 2c22 0 43.167 -1.66699 63.5 -5s37.833 -8.33301 52.5 -15c26.667 -12 46.834 -30.333 60.501 -55s20.5 -54 20.5 -88v-313h-82v22
c-14.667 -8.66699 -35.167 -16 -61.5 -22s-54.166 -9 -83.499 -9h-9.5h-8.5c-44.667 2.66699 -85.667 15.167 -123 37.5s-56 60.5 -56 114.5c0 58 22.833 99 68.5 123s95.834 36 150.501 36c5.33301 0 10.833 -0.166992 16.5 -0.5s11.167 -0.5 16.5 -0.5
c14.667 -1.33301 29.334 -3.33301 44.001 -6s28.334 -5.66699 41.001 -9c0 38 -4.33301 64.333 -13 79s-21.667 25 -39 31l-16 4c-5.33301 1.33301 -10.666 2.33301 -15.999 3s-10.666 1.16699 -15.999 1.5s-10.666 0.5 -15.999 0.5c-20.667 0 -43 -3 -67 -9
s-49.667 -14.667 -77 -26v81v0zM103.99 143c0 -27.333 12.665 -47.001 37.998 -59.001s54.333 -18 87 -18h9.5c3 0 6.16699 0.333008 9.5 1c19.333 1.33301 37.833 4.33301 55.5 9s32.834 10.334 45.501 17.001v118c-2 0.666992 -4.83301 1.5 -8.5 2.5
s-7.5 2.16699 -11.5 3.5c-11.333 2.66699 -25.166 5 -41.499 7s-33.5 3 -51.5 3h-5.5h-5.5c-30 -1.33301 -57.667 -7.83301 -83 -19.5s-38 -33.167 -38 -64.5v0z" />
    <glyph glyph-name="equal" unicode="&#x430;" horiz-adv-x="463" 
d="M89 451c10 4 20.3232 7.33301 30.9902 10s21.334 5 32.001 7c14.667 2.66699 29.334 4.66699 44.001 6s29 2 43 2c22 0 43.167 -1.66699 63.5 -5s37.833 -8.33301 52.5 -15c26.667 -12 46.834 -30.333 60.501 -55s20.5 -54 20.5 -88v-313h-82v22
c-14.667 -8.66699 -35.167 -16 -61.5 -22s-54.166 -9 -83.499 -9h-9.5h-8.5c-44.667 2.66699 -85.667 15.167 -123 37.5s-56 60.5 -56 114.5c0 58 22.833 99 68.5 123s95.834 36 150.501 36c5.33301 0 10.833 -0.166992 16.5 -0.5s11.167 -0.5 16.5 -0.5
c14.667 -1.33301 29.334 -3.33301 44.001 -6s28.334 -5.66699 41.001 -9c0 38 -4.33301 64.333 -13 79s-21.667 25 -39 31l-16 4c-5.33301 1.33301 -10.666 2.33301 -15.999 3s-10.666 1.16699 -15.999 1.5s-10.666 0.5 -15.999 0.5c-20.667 0 -43 -3 -67 -9
s-49.667 -14.667 -77 -26v81v0zM103.99 143c0 -27.333 12.665 -47.001 37.998 -59.001s54.333 -18 87 -18h9.5c3 0 6.16699 0.333008 9.5 1c19.333 1.33301 37.833 4.33301 55.5 9s32.834 10.334 45.501 17.001v118c-2 0.666992 -4.83301 1.5 -8.5 2.5
s-7.5 2.16699 -11.5 3.5c-11.333 2.66699 -25.166 5 -41.499 7s-33.5 3 -51.5 3h-5.5h-5.5c-30 -1.33301 -57.667 -7.83301 -83 -19.5s-38 -33.167 -38 -64.5v0z" />
    <glyph glyph-name="K" unicode="&#xe1;" horiz-adv-x="530" 
d="M391 531l-24.9951 3.50098c-7.33301 1 -14.333 1.5 -21 1.5c-5.33301 0.666992 -10.833 1 -16.5 1h-17.5h-50c-6.66699 -0.666992 -13.667 -1.83398 -21 -3.50098s-15 -4.16699 -23 -7.5c-11.333 -4 -22.333 -9.5 -33 -16.5s-19.667 -14.5 -27 -22.5
c-2 -2 -4.33301 -5.16699 -7 -9.5s-5.33398 -9.16602 -8.00098 -14.499c-4 -8 -7.83301 -17.167 -11.5 -27.5s-6.16699 -20.833 -7.5 -31.5c0 -1.33301 -0.166992 -2.83301 -0.5 -4.5s-0.5 -3.5 -0.5 -5.5c17.333 20.667 36.5 36.167 57.5 46.5s42.167 17.166 63.5 20.499
c5.33301 1.33301 10.666 2.16602 15.999 2.49902s10.666 0.5 15.999 0.5h5c64 0 118.333 -20.167 163 -60.5s67 -96.166 67 -167.499c-0.666992 -71.333 -22.334 -130.166 -65.001 -176.499s-102.667 -69.5 -180 -69.5c-76.667 0 -136 23 -178 69s-63.667 103.667 -65 173
v10v4.5v4.5c0 47.333 3.33301 93.666 10 138.999s18.667 84.333 36 117c14.667 27.333 35.5 49.5 62.5 66.5s57.167 28.833 90.5 35.5c5.33301 0.666992 10.666 1.16699 15.999 1.5s11 0.833008 17 1.5h16h16c16.667 0 32.667 -0.5 48 -1.5s29 -1.83301 41 -2.5
c12 -1.33301 22 -2.5 30 -3.5s13 -1.5 15 -1.5l-29 -72v0zM266.005 68.001c45.333 0 81.3311 15.832 107.998 47.499s40.334 71.834 41.001 120.501c0 49.333 -14.667 87 -44 113s-63.666 39 -102.999 39h-2c-38.667 0 -72.667 -14 -102 -42s-44 -64.333 -44 -109v-2
c0 -48.667 13.167 -88.667 39.5 -120s61.833 -47 106.5 -47v0z" />
    <glyph glyph-name="K" unicode="&#x431;" horiz-adv-x="530" 
d="M391 531l-24.9951 3.50098c-7.33301 1 -14.333 1.5 -21 1.5c-5.33301 0.666992 -10.833 1 -16.5 1h-17.5h-50c-6.66699 -0.666992 -13.667 -1.83398 -21 -3.50098s-15 -4.16699 -23 -7.5c-11.333 -4 -22.333 -9.5 -33 -16.5s-19.667 -14.5 -27 -22.5
c-2 -2 -4.33301 -5.16699 -7 -9.5s-5.33398 -9.16602 -8.00098 -14.499c-4 -8 -7.83301 -17.167 -11.5 -27.5s-6.16699 -20.833 -7.5 -31.5c0 -1.33301 -0.166992 -2.83301 -0.5 -4.5s-0.5 -3.5 -0.5 -5.5c17.333 20.667 36.5 36.167 57.5 46.5s42.167 17.166 63.5 20.499
c5.33301 1.33301 10.666 2.16602 15.999 2.49902s10.666 0.5 15.999 0.5h5c64 0 118.333 -20.167 163 -60.5s67 -96.166 67 -167.499c-0.666992 -71.333 -22.334 -130.166 -65.001 -176.499s-102.667 -69.5 -180 -69.5c-76.667 0 -136 23 -178 69s-63.667 103.667 -65 173
v10v4.5v4.5c0 47.333 3.33301 93.666 10 138.999s18.667 84.333 36 117c14.667 27.333 35.5 49.5 62.5 66.5s57.167 28.833 90.5 35.5c5.33301 0.666992 10.666 1.16699 15.999 1.5s11 0.833008 17 1.5h16h16c16.667 0 32.667 -0.5 48 -1.5s29 -1.83301 41 -2.5
c12 -1.33301 22 -2.5 30 -3.5s13 -1.5 15 -1.5l-29 -72v0zM266.005 68.001c45.333 0 81.3311 15.832 107.998 47.499s40.334 71.834 41.001 120.501c0 49.333 -14.667 87 -44 113s-63.666 39 -102.999 39h-2c-38.667 0 -72.667 -14 -102 -42s-44 -64.333 -44 -109v-2
c0 -48.667 13.167 -88.667 39.5 -120s61.833 -47 106.5 -47v0z" />
    <glyph glyph-name="quotedbl" unicode="&#xe2;" horiz-adv-x="482" 
d="M297 0h-258v464h220c48.667 0 84.834 -10.333 108.501 -31s35.5 -43.667 35.5 -69c0 -2.66699 -0.166992 -5.16699 -0.5 -7.5s-0.5 -4.5 -0.5 -6.5c-2 -10.667 -6.33301 -21.167 -13 -31.5s-15.334 -19.5 -26.001 -27.5c33.333 -6 59.166 -21.833 77.499 -47.5
s28.166 -53.167 29.499 -82.5v-3.5v-3.5v-2.5v-3.5c-1.33301 -36.667 -16.166 -70.5 -44.499 -101.5s-71.166 -46.5 -128.499 -46.5v0zM126 250v-176.999h159c30 0 52.667 8.66699 68 26s23 36.666 23 57.999v4v4c-2 21.333 -12 40.833 -30 58.5s-44.667 26.5 -80 26.5h-140
v0zM270 324.001c16.667 0 28.999 3.33301 36.999 10s12 14 12 22v3.5c0 1 -0.333008 2.16699 -1 3.5c-2 6.66699 -7.16699 13 -15.5 19s-20.166 9 -35.499 9h-141v-67h144v0z" />
    <glyph glyph-name="quotedbl" unicode="&#x432;" horiz-adv-x="482" 
d="M297 0h-258v464h220c48.667 0 84.834 -10.333 108.501 -31s35.5 -43.667 35.5 -69c0 -2.66699 -0.166992 -5.16699 -0.5 -7.5s-0.5 -4.5 -0.5 -6.5c-2 -10.667 -6.33301 -21.167 -13 -31.5s-15.334 -19.5 -26.001 -27.5c33.333 -6 59.166 -21.833 77.499 -47.5
s28.166 -53.167 29.499 -82.5v-3.5v-3.5v-2.5v-3.5c-1.33301 -36.667 -16.166 -70.5 -44.499 -101.5s-71.166 -46.5 -128.499 -46.5v0zM126 250v-176.999h159c30 0 52.667 8.66699 68 26s23 36.666 23 57.999v4v4c-2 21.333 -12 40.833 -30 58.5s-44.667 26.5 -80 26.5h-140
v0zM270 324.001c16.667 0 28.999 3.33301 36.999 10s12 14 12 22v3.5c0 1 -0.333008 2.16699 -1 3.5c-2 6.66699 -7.16699 13 -15.5 19s-20.166 9 -35.499 9h-141v-67h144v0z" />
    <glyph glyph-name="atilde" unicode="&#xe3;" horiz-adv-x="350" 
d="M123 391v-391h-87v464h324v-73h-237v0z" />
    <glyph glyph-name="atilde" unicode="&#x433;" horiz-adv-x="350" 
d="M123 391v-391h-87v464h324v-73h-237v0z" />
    <glyph glyph-name="adieresis" unicode="&#xe4;" horiz-adv-x="492" 
d="M158 391l-58 0.00195312v73h344v-391c16 0 28.333 -5 37 -15s13 -23 13 -39c0 -3.33301 -0.333008 -7.33301 -1 -12s-1.66699 -9.33398 -3 -14.001l-41 -138l-84 8l42 137h-325l42 -137l-85 -8l-41 137v5c0 1.33301 -0.333008 2.33301 -1 3
c0 2.66699 -0.166992 5.5 -0.5 8.5s-0.5 5.5 -0.5 7.5c0 17.333 5.16699 31.166 15.5 41.499s23.5 15.833 39.5 16.5l107 317v0zM357 73.002v318h-87c-10 0 -18.333 -2.16699 -25 -6.5s-11 -9.83301 -13 -16.5l-97 -295h222v0z" />
    <glyph glyph-name="adieresis" unicode="&#x434;" horiz-adv-x="492" 
d="M158 391l-58 0.00195312v73h344v-391c16 0 28.333 -5 37 -15s13 -23 13 -39c0 -3.33301 -0.333008 -7.33301 -1 -12s-1.66699 -9.33398 -3 -14.001l-41 -138l-84 8l42 137h-325l42 -137l-85 -8l-41 137v5c0 1.33301 -0.333008 2.33301 -1 3
c0 2.66699 -0.166992 5.5 -0.5 8.5s-0.5 5.5 -0.5 7.5c0 17.333 5.16699 31.166 15.5 41.499s23.5 15.833 39.5 16.5l107 317v0zM357 73.002v318h-87c-10 0 -18.333 -2.16699 -25 -6.5s-11 -9.83301 -13 -16.5l-97 -295h222v0z" />
    <glyph glyph-name="yright" unicode="&#xe5;" horiz-adv-x="520" 
d="M502 250l-391 0.000976562v-3v-4c-0.666992 -1.33301 -1 -2.5 -1 -3.5v-3.5c0 -42.667 14.667 -81.667 44 -117s68 -54 116 -56c37.333 0.666992 67.5 6.5 90.5 17.5s44.833 27.167 65.5 48.5l10.5 12l11.5 13l62 -59c-32.667 -38.667 -68.334 -66 -107.001 -82
s-80.667 -24 -126 -24l-10 -1c-82.667 2.66699 -145.5 29.5 -188.5 80.5s-64.5 108.833 -64.5 173.5c0 59.333 21.333 113.166 64 161.499s105.667 72.5 189 72.5c8 0 16.333 -0.5 25 -1.5s17.334 -2.5 26.001 -4.5c46 -9.33301 88 -32.333 126 -69s57.333 -87 58 -151v0z
M128 324.001l271 -0.000976562c-8.66699 18 -22.167 33.5 -40.5 46.5s-37.833 22.167 -58.5 27.5c-4.66699 1.33301 -9.5 2.33301 -14.5 3s-9.83301 1 -14.5 1h-2c-8 0 -16.333 -0.666992 -25 -2s-17.334 -3.66602 -26.001 -6.99902
c-18 -5.33301 -35.167 -13.833 -51.5 -25.5s-29.166 -26.167 -38.499 -43.5v0z" />
    <glyph glyph-name="yright" unicode="&#x435;" horiz-adv-x="520" 
d="M502 250l-391 0.000976562v-3v-4c-0.666992 -1.33301 -1 -2.5 -1 -3.5v-3.5c0 -42.667 14.667 -81.667 44 -117s68 -54 116 -56c37.333 0.666992 67.5 6.5 90.5 17.5s44.833 27.167 65.5 48.5l10.5 12l11.5 13l62 -59c-32.667 -38.667 -68.334 -66 -107.001 -82
s-80.667 -24 -126 -24l-10 -1c-82.667 2.66699 -145.5 29.5 -188.5 80.5s-64.5 108.833 -64.5 173.5c0 59.333 21.333 113.166 64 161.499s105.667 72.5 189 72.5c8 0 16.333 -0.5 25 -1.5s17.334 -2.5 26.001 -4.5c46 -9.33301 88 -32.333 126 -69s57.333 -87 58 -151v0z
M128 324.001l271 -0.000976562c-8.66699 18 -22.167 33.5 -40.5 46.5s-37.833 22.167 -58.5 27.5c-4.66699 1.33301 -9.5 2.33301 -14.5 3s-9.83301 1 -14.5 1h-2c-8 0 -16.333 -0.666992 -25 -2s-17.334 -3.66602 -26.001 -6.99902
c-18 -5.33301 -35.167 -13.833 -51.5 -25.5s-29.166 -26.167 -38.499 -43.5v0z" />
    <glyph glyph-name="guilsinglright" unicode="&#xe6;" horiz-adv-x="785" 
d="M436 464v-147l176 147h115l-180 -150c26.667 -0.666992 49.5 -10.167 68.5 -28.5s35.167 -38.5 48.5 -60.5c2 -2.66699 3.83301 -5.5 5.5 -8.5s3.16699 -5.83301 4.5 -8.5l107 -203l-87 -10l-117 203c-7.33301 14 -17.833 25.833 -31.5 35.5s-27.834 15.167 -42.501 16.5
h-2.5h-2.5h-62v-250h-86v250h-63c-15.333 0 -30.166 -4.83301 -44.499 -14.5s-25.833 -22.167 -34.5 -37.5l-117 -203l-94 10l114 203c1.33301 2.66699 2.83301 5.5 4.5 8.5s3.5 5.83301 5.5 8.5c13.333 22 29.5 42.167 48.5 60.5s42.167 27.833 69.5 28.5l-180 150h114
l177 -147v147h86v0z" />
    <glyph glyph-name="guilsinglright" unicode="&#x436;" horiz-adv-x="785" 
d="M436 464v-147l176 147h115l-180 -150c26.667 -0.666992 49.5 -10.167 68.5 -28.5s35.167 -38.5 48.5 -60.5c2 -2.66699 3.83301 -5.5 5.5 -8.5s3.16699 -5.83301 4.5 -8.5l107 -203l-87 -10l-117 203c-7.33301 14 -17.833 25.833 -31.5 35.5s-27.834 15.167 -42.501 16.5
h-2.5h-2.5h-62v-250h-86v250h-63c-15.333 0 -30.166 -4.83301 -44.499 -14.5s-25.833 -22.167 -34.5 -37.5l-117 -203l-94 10l114 203c1.33301 2.66699 2.83301 5.5 4.5 8.5s3.5 5.83301 5.5 8.5c13.333 22 29.5 42.167 48.5 60.5s42.167 27.833 69.5 28.5l-180 150h114
l177 -147v147h86v0z" />
    <glyph glyph-name="florin" unicode="&#xe7;" horiz-adv-x="397" 
d="M212 0l-192.997 0.00292969v73h183c32 0 56.167 8.83301 72.5 26.5s24.5 37.167 24.5 58.5v5.5c0 1.66699 -0.333008 3.16699 -1 4.5c-2.66699 20.667 -13.5 39.5 -32.5 56.5s-46.167 25.5 -81.5 25.5h-165v74h157c14 0 25 3.16699 33 9.5s12.333 13.166 13 20.499v1.5
v1.5v1.5v1.5c-0.666992 7.33301 -4.83398 14.166 -12.501 20.499s-18.834 9.5 -33.501 9.5l-118 1v73h118c39.333 0 70.166 -9.5 92.499 -28.5s34.833 -39.833 37.5 -62.5v-4v-4c0 -13.333 -3.83301 -26.333 -11.5 -39s-19.167 -23 -34.5 -31
c39.333 -10 69.666 -26 90.999 -48s32 -55.333 32 -100c0 -42.667 -16.667 -77.834 -50 -105.501s-73.666 -41.5 -120.999 -41.5v0z" />
    <glyph glyph-name="florin" unicode="&#x437;" horiz-adv-x="397" 
d="M212 0l-192.997 0.00292969v73h183c32 0 56.167 8.83301 72.5 26.5s24.5 37.167 24.5 58.5v5.5c0 1.66699 -0.333008 3.16699 -1 4.5c-2.66699 20.667 -13.5 39.5 -32.5 56.5s-46.167 25.5 -81.5 25.5h-165v74h157c14 0 25 3.16699 33 9.5s12.333 13.166 13 20.499v1.5
v1.5v1.5v1.5c-0.666992 7.33301 -4.83398 14.166 -12.501 20.499s-18.834 9.5 -33.501 9.5l-118 1v73h118c39.333 0 70.166 -9.5 92.499 -28.5s34.833 -39.833 37.5 -62.5v-4v-4c0 -13.333 -3.83301 -26.333 -11.5 -39s-19.167 -23 -34.5 -31
c39.333 -10 69.666 -26 90.999 -48s32 -55.333 32 -100c0 -42.667 -16.667 -77.834 -50 -105.501s-73.666 -41.5 -120.999 -41.5v0z" />
    <glyph glyph-name="comma" unicode="&#xe8;" horiz-adv-x="510" 
d="M381 359l-255 -266v-93h-87v464h87v-266l255 266h87v-464h-87v359v0z" />
    <glyph glyph-name="comma" unicode="&#x438;" horiz-adv-x="510" 
d="M381 359l-255 -266v-93h-87v464h87v-266l255 266h87v-464h-87v359v0z" />
    <glyph glyph-name="L" unicode="&#xe9;" horiz-adv-x="530" 
d="M390 359l-255 -266v-93h-87v464h87v-266l255 266h87v-464h-87v359v0zM137 592h248v-78h-248v78v0z" />
    <glyph glyph-name="L" unicode="&#x439;" horiz-adv-x="530" 
d="M390 359l-255 -266v-93h-87v464h87v-266l255 266h87v-464h-87v359v0zM137 592h248v-78h-248v78v0z" />
    <glyph glyph-name="asterisk" unicode="&#xea;" horiz-adv-x="473" 
d="M384 -5l-118.001 203c-8 15.333 -19.167 27.833 -33.5 37.5s-29.166 14.5 -44.499 14.5h-63v-250h-87v464h87v-147l177 147h114l-180 -150c27.333 -0.666992 50.5 -10.167 69.5 -28.5s35.167 -38.5 48.5 -60.5c2 -2.66699 3.83301 -5.5 5.5 -8.5
s3.16699 -5.83301 4.5 -8.5l114 -203l-94 -10v0z" />
    <glyph glyph-name="asterisk" unicode="&#x43a;" horiz-adv-x="473" 
d="M384 -5l-118.001 203c-8 15.333 -19.167 27.833 -33.5 37.5s-29.166 14.5 -44.499 14.5h-63v-250h-87v464h87v-147l177 147h114l-180 -150c27.333 -0.666992 50.5 -10.167 69.5 -28.5s35.167 -38.5 48.5 -60.5c2 -2.66699 3.83301 -5.5 5.5 -8.5
s3.16699 -5.83301 4.5 -8.5l114 -203l-94 -10v0z" />
    <glyph glyph-name="edieresis" unicode="&#xeb;" horiz-adv-x="463" 
d="M92 -5l-89.999 5.00195l135 391h-54v73h344v-464h-87v391h-94c-9.33301 0 -15.833 -1.66699 -19.5 -5s-6.83398 -7.33301 -9.50098 -12c-0.666992 -0.666992 -1.16699 -1.33398 -1.5 -2.00098s-0.5 -1.33398 -0.5 -2.00098l-123 -375v0z" />
    <glyph glyph-name="edieresis" unicode="&#x43b;" horiz-adv-x="463" 
d="M92 -5l-89.999 5.00195l135 391h-54v73h344v-464h-87v391h-94c-9.33301 0 -15.833 -1.66699 -19.5 -5s-6.83398 -7.33301 -9.50098 -12c-0.666992 -0.666992 -1.16699 -1.33398 -1.5 -2.00098s-0.5 -1.33398 -0.5 -2.00098l-123 -375v0z" />
    <glyph glyph-name="igrave" unicode="&#xec;" horiz-adv-x="624" 
d="M483 464h88v-464h-88v334l-139 -179h-77l-139 179v-334h-87v464h87l178 -225l177 225v0z" />
    <glyph glyph-name="igrave" unicode="&#x43c;" horiz-adv-x="624" 
d="M483 464h88v-464h-88v334l-139 -179h-77l-139 179v-334h-87v464h87l178 -225l177 225v0z" />
    <glyph glyph-name="ellipsis" unicode="&#xed;" horiz-adv-x="530" 
d="M57 324v140h87v-140h249v140h87v-464h-87v250h-249v-250h-87v250h-60v74h60v0z" />
    <glyph glyph-name="ellipsis" unicode="&#x43d;" horiz-adv-x="530" 
d="M57 324v140h87v-140h249v140h87v-464h-87v250h-249v-250h-87v250h-60v74h60v0z" />
    <glyph glyph-name="percent" unicode="&#xee;" horiz-adv-x="539" 
d="M269 -13c-68.667 0.666992 -127.833 23.334 -177.5 68.001s-74.5 105 -74.5 181l1 1c0 75.333 25.167 134 75.5 176s107.5 63 171.5 63h4c64.667 -0.666992 122.5 -21.834 173.5 -63.501s76.833 -100.167 77.5 -175.5v-1c0 -74 -24.667 -133.667 -74 -179
s-108 -68 -176 -68l-1 -2v0zM268.001 62c42 0 78.332 15.5 108.999 46.5s46 71.167 46 120.5s-14.5 90 -43.5 122s-66.167 48 -111.5 48h-1c-45.333 -0.666992 -82.166 -16.667 -110.499 -48s-42.5 -72 -42.5 -122c0 -49.333 15.167 -89.5 45.5 -120.5
s66.5 -46.5 108.5 -46.5v0z" />
    <glyph glyph-name="percent" unicode="&#x43e;" horiz-adv-x="539" 
d="M269 -13c-68.667 0.666992 -127.833 23.334 -177.5 68.001s-74.5 105 -74.5 181l1 1c0 75.333 25.167 134 75.5 176s107.5 63 171.5 63h4c64.667 -0.666992 122.5 -21.834 173.5 -63.501s76.833 -100.167 77.5 -175.5v-1c0 -74 -24.667 -133.667 -74 -179
s-108 -68 -176 -68l-1 -2v0zM268.001 62c42 0 78.332 15.5 108.999 46.5s46 71.167 46 120.5s-14.5 90 -43.5 122s-66.167 48 -111.5 48h-1c-45.333 -0.666992 -82.166 -16.667 -110.499 -48s-42.5 -72 -42.5 -122c0 -49.333 15.167 -89.5 45.5 -120.5
s66.5 -46.5 108.5 -46.5v0z" />
    <glyph glyph-name="C" unicode="&#xef;" horiz-adv-x="501" 
d="M126 391v-391h-87v464h423v-464h-87v391h-249v0z" />
    <glyph glyph-name="C" unicode="&#x43f;" horiz-adv-x="501" 
d="M126 391v-391h-87v464h423v-464h-87v391h-249v0z" />
    <glyph glyph-name="exclam" unicode="&#xf0;" horiz-adv-x="501" 
d="M123 6v-235.001h-87v693h87v-22c20 10 40.667 17.5 62 22.5s42.666 7.5 63.999 7.5c60 0 114 -19.667 162 -59s72 -97.333 72 -174c0 -81.333 -24 -142.666 -72 -183.999s-107.667 -62 -179 -62c-16.667 0 -34.167 1 -52.5 3s-37.166 5.33301 -56.499 10v0zM123 359.999
l0.00292969 -264.999c12.667 -6.66699 26.5 -12 41.5 -16s30.167 -6.66699 45.5 -8h6h6h2.5h3.5c39.333 1.33301 75.5 14.666 108.5 39.999s49.5 66 49.5 122c0 54.667 -15.667 95 -47 121s-67 39 -107 39c-4.66699 0 -9.33398 -0.166992 -14.001 -0.5
s-9.33398 -0.833008 -14.001 -1.5c-14 -2 -27.833 -5.66699 -41.5 -11s-26.834 -12 -39.501 -20v0z" />
    <glyph glyph-name="exclam" unicode="&#x440;" horiz-adv-x="501" 
d="M123 6v-235.001h-87v693h87v-22c20 10 40.667 17.5 62 22.5s42.666 7.5 63.999 7.5c60 0 114 -19.667 162 -59s72 -97.333 72 -174c0 -81.333 -24 -142.666 -72 -183.999s-107.667 -62 -179 -62c-16.667 0 -34.167 1 -52.5 3s-37.166 5.33301 -56.499 10v0zM123 359.999
l0.00292969 -264.999c12.667 -6.66699 26.5 -12 41.5 -16s30.167 -6.66699 45.5 -8h6h6h2.5h3.5c39.333 1.33301 75.5 14.666 108.5 39.999s49.5 66 49.5 122c0 54.667 -15.667 95 -47 121s-67 39 -107 39c-4.66699 0 -9.33398 -0.166992 -14.001 -0.5
s-9.33398 -0.833008 -14.001 -1.5c-14 -2 -27.833 -5.66699 -41.5 -11s-26.834 -12 -39.501 -20v0z" />
    <glyph glyph-name="quotedblleft" unicode="&#xf1;" horiz-adv-x="463" 
d="M412 111l38 -69.9971c-23.333 -14.667 -48.166 -25.834 -74.499 -33.501s-53.166 -12.167 -80.499 -13.5h-8.5h-9.5c-68 0 -129.167 20.5 -183.5 61.5s-81.5 101.833 -81.5 182.5s27.167 141.667 81.5 183s115.5 62 183.5 62h9.5h8.5
c27.333 -2 54.166 -6.83301 80.499 -14.5s51.166 -18.834 74.499 -33.501l-38 -71c-6 3.33301 -12.167 6.16602 -18.5 8.49902s-12.5 4.5 -18.5 6.5c-16 5.33301 -31.667 9.33301 -47 12s-30 4 -44 4c-48.667 0 -89.834 -13.833 -123.501 -41.5s-50.5 -66.167 -50.5 -115.5
s16.833 -88 50.5 -116s74.834 -42 123.501 -42c14 0 28.667 1.33301 44 4s31 6.66699 47 12c6 2 12.167 4.33301 18.5 7l18.5 8v0z" />
    <glyph glyph-name="quotedblleft" unicode="&#x441;" horiz-adv-x="463" 
d="M412 111l38 -69.9971c-23.333 -14.667 -48.166 -25.834 -74.499 -33.501s-53.166 -12.167 -80.499 -13.5h-8.5h-9.5c-68 0 -129.167 20.5 -183.5 61.5s-81.5 101.833 -81.5 182.5s27.167 141.667 81.5 183s115.5 62 183.5 62h9.5h8.5
c27.333 -2 54.166 -6.83301 80.499 -14.5s51.166 -18.834 74.499 -33.501l-38 -71c-6 3.33301 -12.167 6.16602 -18.5 8.49902s-12.5 4.5 -18.5 6.5c-16 5.33301 -31.667 9.33301 -47 12s-30 4 -44 4c-48.667 0 -89.834 -13.833 -123.501 -41.5s-50.5 -66.167 -50.5 -115.5
s16.833 -88 50.5 -116s74.834 -42 123.501 -42c14 0 28.667 1.33301 44 4s31 6.66699 47 12c6 2 12.167 4.33301 18.5 7l18.5 8v0z" />
    <glyph glyph-name="two" unicode="&#xf2;" horiz-adv-x="435" 
d="M429 464v-73h-168v-391h-87v391h-168v73h423v0z" />
    <glyph glyph-name="two" unicode="&#x442;" horiz-adv-x="435" 
d="M429 464v-73h-168v-391h-87v391h-168v73h423v0z" />
    <glyph glyph-name="three" unicode="&#xf3;" horiz-adv-x="548" 
d="M188 -99l49.9961 101.001l-227 462h98l176 -357l160 357h97l-271 -597c-12.667 -27.333 -30 -48.5 -52 -63.5s-44.667 -24.833 -68 -29.5l-17.5 -2c-5.66699 -0.666992 -11.167 -1 -16.5 -1c-12.667 0 -25.167 1.16699 -37.5 3.5s-23.166 6.16602 -32.499 11.499v71
c2 0 4.16699 -0.333008 6.5 -1s4.83301 -1 7.5 -1c6.66699 -2 13.334 -3.33301 20.001 -4s13 -1 19 -1c18.667 0 35.834 4 51.501 12s27.834 21.333 36.501 40v-1z" />
    <glyph glyph-name="three" unicode="&#x443;" horiz-adv-x="548" 
d="M188 -99l49.9961 101.001l-227 462h98l176 -357l160 357h97l-271 -597c-12.667 -27.333 -30 -48.5 -52 -63.5s-44.667 -24.833 -68 -29.5l-17.5 -2c-5.66699 -0.666992 -11.167 -1 -16.5 -1c-12.667 0 -25.167 1.16699 -37.5 3.5s-23.166 6.16602 -32.499 11.499v71
c2 0 4.16699 -0.333008 6.5 -1s4.83301 -1 7.5 -1c6.66699 -2 13.334 -3.33301 20.001 -4s13 -1 19 -1c18.667 0 35.834 4 51.501 12s27.834 21.333 36.501 40v-1z" />
    <glyph glyph-name="hyphen" unicode="&#xf4;" horiz-adv-x="700" 
d="M353 464l92.998 -0.000976562c61.333 0 115.5 -18.167 162.5 -54.5s72.833 -90.5 77.5 -162.5c0 -2 0.166992 -3.83301 0.5 -5.5s0.5 -3.5 0.5 -5.5v-9v-8c0 -70 -24.667 -124 -74 -162s-104.666 -57 -165.999 -57h-51v-233h-86v233h-52
c-63.333 0 -119.166 19 -167.499 57s-72.5 91.667 -72.5 161v7c0 2.66699 0.333008 5.33398 1 8.00098v7v7c4 74 30 128.667 78 164s102.333 53 163 53h93v0zM105.998 246.999v-4v-4c-0.666992 -1.33301 -1 -2.83301 -1 -4.5v-4.5c0 -52 16 -91.167 48 -117.5
s67.333 -39.5 106 -39.5h50v317h-49c-42.667 0 -78 -12.5 -106 -37.5s-44 -60.167 -48 -105.5v0zM445.998 389.999h-49.001v-317h49c39.333 0 74.833 13 106.5 39s47.5 65.667 47.5 119v16c-3.33301 45.333 -19.166 80.5 -47.499 105.5s-63.833 37.5 -106.5 37.5v0z" />
    <glyph glyph-name="hyphen" unicode="&#x444;" horiz-adv-x="700" 
d="M353 464l92.998 -0.000976562c61.333 0 115.5 -18.167 162.5 -54.5s72.833 -90.5 77.5 -162.5c0 -2 0.166992 -3.83301 0.5 -5.5s0.5 -3.5 0.5 -5.5v-9v-8c0 -70 -24.667 -124 -74 -162s-104.666 -57 -165.999 -57h-51v-233h-86v233h-52
c-63.333 0 -119.166 19 -167.499 57s-72.5 91.667 -72.5 161v7c0 2.66699 0.333008 5.33398 1 8.00098v7v7c4 74 30 128.667 78 164s102.333 53 163 53h93v0zM105.998 246.999v-4v-4c-0.666992 -1.33301 -1 -2.83301 -1 -4.5v-4.5c0 -52 16 -91.167 48 -117.5
s67.333 -39.5 106 -39.5h50v317h-49c-42.667 0 -78 -12.5 -106 -37.5s-44 -60.167 -48 -105.5v0zM445.998 389.999h-49.001v-317h49c39.333 0 74.833 13 106.5 39s47.5 65.667 47.5 119v16c-3.33301 45.333 -19.166 80.5 -47.499 105.5s-63.833 37.5 -106.5 37.5v0z" />
    <glyph glyph-name="period" unicode="&#xf5;" horiz-adv-x="492" 
d="M378 0l-137 195l-137 -195h-103l187 269l-135 195h103l85 -122l84 122h104l-137 -195l189 -269h-103v0z" />
    <glyph glyph-name="period" unicode="&#x445;" horiz-adv-x="492" 
d="M378 0l-137 195l-137 -195h-103l187 269l-135 195h103l85 -122l84 122h104l-137 -195l189 -269h-103v0z" />
    <glyph glyph-name="odieresis" unicode="&#xf6;" horiz-adv-x="510" 
d="M460 73c16 0 28.332 -4.99902 36.999 -14.999s13 -23 13 -39c0 -3.33301 -0.166992 -7.33301 -0.5 -12s-1.16602 -9.33398 -2.49902 -14.001l-41 -138l-85 8l42 137h-386v464h87v-391h249v391h87v-391v0z" />
    <glyph glyph-name="odieresis" unicode="&#x446;" horiz-adv-x="510" 
d="M460 73c16 0 28.332 -4.99902 36.999 -14.999s13 -23 13 -39c0 -3.33301 -0.166992 -7.33301 -0.5 -12s-1.16602 -9.33398 -2.49902 -14.001l-41 -138l-85 8l42 137h-386v464h87v-391h249v391h87v-391v0z" />
    <glyph glyph-name="divide" unicode="&#xf7;" horiz-adv-x="454" 
d="M232 262h95.999v202h87v-464h-87v188h-106c-8 0 -16.667 0.666992 -26 2s-18.666 3.33301 -27.999 6c-20.667 6 -40.5 16.333 -59.5 31s-33.167 34.334 -42.5 59.001l-64 178h92l51 -148c5.33301 -16.667 16 -29.834 32 -39.501s34.333 -14.5 55 -14.5v0z" />
    <glyph glyph-name="divide" unicode="&#x447;" horiz-adv-x="454" 
d="M232 262h95.999v202h87v-464h-87v188h-106c-8 0 -16.667 0.666992 -26 2s-18.666 3.33301 -27.999 6c-20.667 6 -40.5 16.333 -59.5 31s-33.167 34.334 -42.5 59.001l-64 178h92l51 -148c5.33301 -16.667 16 -29.834 32 -39.501s34.333 -14.5 55 -14.5v0z" />
    <glyph glyph-name="oslash" unicode="&#xf8;" horiz-adv-x="785" 
d="M435 464v-391h224v391h88v-464h-707v464h87v-391h220v391h88v0z" />
    <glyph glyph-name="oslash" unicode="&#x448;" horiz-adv-x="785" 
d="M435 464v-391h224v391h88v-464h-707v464h87v-391h220v391h88v0z" />
    <glyph glyph-name="question" unicode="&#xf9;" horiz-adv-x="795" 
d="M747 73c16 0 28 -5.16699 36 -15.5s12 -23.833 12 -40.5v-11c0 -4 -0.666992 -8.33301 -2 -13l-41 -138l-84 8l42 137h-670v464h87v-391h220v391h88v-391h224v391h88v-391v0z" />
    <glyph glyph-name="question" unicode="&#x449;" horiz-adv-x="795" 
d="M747 73c16 0 28 -5.16699 36 -15.5s12 -23.833 12 -40.5v-11c0 -4 -0.666992 -8.33301 -2 -13l-41 -138l-84 8l42 137h-670v464h87v-391h220v391h88v-391h224v391h88v-391v0z" />
    <glyph glyph-name="A" unicode="&#xfa;" horiz-adv-x="568" 
d="M122 391h-124v73h211v-140h155c62 0 108.5 -16.667 139.5 -50s46.833 -70 47.5 -110v-1.5v-1.5v-1.5v-1.5c-0.666992 -39.333 -16.5 -75.5 -47.5 -108.5s-77.5 -49.5 -139.5 -49.5h-242v391v0zM209 250v-177h155c32.667 0 56.834 9.16699 72.501 27.5
s23.5 38.5 23.5 60.5v1.5v1.5c-0.666992 21.333 -8.83398 41 -24.501 59s-39.5 27 -71.5 27h-155v0z" />
    <glyph glyph-name="A" unicode="&#x44a;" horiz-adv-x="568" 
d="M122 391h-124v73h211v-140h155c62 0 108.5 -16.667 139.5 -50s46.833 -70 47.5 -110v-1.5v-1.5v-1.5v-1.5c-0.666992 -39.333 -16.5 -75.5 -47.5 -108.5s-77.5 -49.5 -139.5 -49.5h-242v391v0zM209 250v-177h155c32.667 0 56.834 9.16699 72.501 27.5
s23.5 38.5 23.5 60.5v1.5v1.5c-0.666992 21.333 -8.83398 41 -24.501 59s-39.5 27 -71.5 27h-155v0z" />
    <glyph glyph-name="slash" unicode="&#xfb;" horiz-adv-x="643" 
d="M276 324c60 0 105.667 -16.167 137 -48.5s48 -67.833 50 -106.5v-4v-4c0 -40.667 -15.5 -77.667 -46.5 -111s-77.833 -50 -140.5 -50h-242v464h87v-140h155v0zM276 73c32 0 55.834 9.16699 71.501 27.5s23.5 38.5 23.5 60.5v1.5v1.5
c-0.666992 21.333 -8.83398 41 -24.501 59s-39.167 27 -70.5 27h-155v-177h155v0zM517.001 464h87v-464h-87v464v0z" />
    <glyph glyph-name="slash" unicode="&#x44b;" horiz-adv-x="643" 
d="M276 324c60 0 105.667 -16.167 137 -48.5s48 -67.833 50 -106.5v-4v-4c0 -40.667 -15.5 -77.667 -46.5 -111s-77.833 -50 -140.5 -50h-242v464h87v-140h155v0zM276 73c32 0 55.834 9.16699 71.501 27.5s23.5 38.5 23.5 60.5v1.5v1.5
c-0.666992 21.333 -8.83398 41 -24.501 59s-39.167 27 -70.5 27h-155v-177h155v0zM517.001 464h87v-464h-87v464v0z" />
    <glyph glyph-name="udieresis" unicode="&#xfc;" horiz-adv-x="473" 
d="M117 324h155c61.333 0 107.666 -16.667 138.999 -50s47.333 -70 48 -110v-1.5v-1.5v-1.5v-1.5c-0.666992 -39.333 -16.667 -75.5 -48 -108.5s-77.666 -49.5 -138.999 -49.5h-243v464h88v-140v0zM272 250h-155v-177h155c32 0 56 9.16699 72 27.5s24 38.5 24 60.5v1.5v1.5
c-0.666992 21.333 -9 41 -25 59s-39.667 27 -71 27v0z" />
    <glyph glyph-name="udieresis" unicode="&#x44c;" horiz-adv-x="473" 
d="M117 324h155c61.333 0 107.666 -16.667 138.999 -50s47.333 -70 48 -110v-1.5v-1.5v-1.5v-1.5c-0.666992 -39.333 -16.667 -75.5 -48 -108.5s-77.666 -49.5 -138.999 -49.5h-243v464h88v-140v0zM272 250h-155v-177h155c32 0 56 9.16699 72 27.5s24 38.5 24 60.5v1.5v1.5
c-0.666992 21.333 -9 41 -25 59s-39.667 27 -71 27v0z" />
    <glyph glyph-name="period" unicode="&#xfd;" horiz-adv-x="454" 
d="M3 39l37.999 71.0029c25.333 -14 49.166 -24.333 71.499 -31s43.166 -10 62.499 -10c48.667 0 87.667 15.167 117 45.5s46.333 63.5 51 99.5c0 3.33301 0.166992 6.5 0.5 9.5s0.5 5.83301 0.5 8.5v18h-260v74h244c-10.667 26.667 -28.5 47 -53.5 61s-53.833 21 -86.5 21
c-17.333 0 -35.666 -2.16699 -54.999 -6.5s-38.666 -10.833 -57.999 -19.5l-17.5 -8c-5.66699 -2.66699 -11.167 -5.66699 -16.5 -9l-39 62c24 14 49.333 25.333 76 34s53.334 14 80.001 16c6 0.666992 11.667 1.16699 17 1.5s10.666 0.5 15.999 0.5
c6 0 12 -0.166992 18 -0.5s11.667 -0.833008 17 -1.5c15.333 -1.33301 30.333 -3.83301 45 -7.5s28.667 -8.5 42 -14.5c35.333 -18.667 65.5 -46.834 90.5 -84.501s37.5 -81.834 37.5 -132.501c0 -80.667 -27.333 -141.334 -82 -182.001s-116 -61 -184 -61
c-5.33301 0 -10.666 0.166992 -15.999 0.5s-10.666 0.5 -15.999 0.5c-24.667 2.66699 -48.834 7.5 -72.501 14.5s-46.167 17.167 -67.5 30.5v0z" />
    <glyph glyph-name="period" unicode="&#x44d;" horiz-adv-x="454" 
d="M3 39l37.999 71.0029c25.333 -14 49.166 -24.333 71.499 -31s43.166 -10 62.499 -10c48.667 0 87.667 15.167 117 45.5s46.333 63.5 51 99.5c0 3.33301 0.166992 6.5 0.5 9.5s0.5 5.83301 0.5 8.5v18h-260v74h244c-10.667 26.667 -28.5 47 -53.5 61s-53.833 21 -86.5 21
c-17.333 0 -35.666 -2.16699 -54.999 -6.5s-38.666 -10.833 -57.999 -19.5l-17.5 -8c-5.66699 -2.66699 -11.167 -5.66699 -16.5 -9l-39 62c24 14 49.333 25.333 76 34s53.334 14 80.001 16c6 0.666992 11.667 1.16699 17 1.5s10.666 0.5 15.999 0.5
c6 0 12 -0.166992 18 -0.5s11.667 -0.833008 17 -1.5c15.333 -1.33301 30.333 -3.83301 45 -7.5s28.667 -8.5 42 -14.5c35.333 -18.667 65.5 -46.834 90.5 -84.501s37.5 -81.834 37.5 -132.501c0 -80.667 -27.333 -141.334 -82 -182.001s-116 -61 -184 -61
c-5.33301 0 -10.666 0.166992 -15.999 0.5s-10.666 0.5 -15.999 0.5c-24.667 2.66699 -48.834 7.5 -72.501 14.5s-46.167 17.167 -67.5 30.5v0z" />
    <glyph glyph-name="thorn" unicode="&#xfe;" horiz-adv-x="747" 
d="M222 250l-57.999 -0.000976562v-250h-88v250h-60v74h60v140h88v-140h74c17.333 47.333 47.166 84 89.499 110s89.5 39 141.5 39c66.667 0 125.834 -20.667 177.501 -62s77.5 -98.666 77.5 -171.999s-23.833 -132.5 -71.5 -177.5s-107.834 -67.5 -180.501 -67.5
c-71.333 0 -130.833 22.667 -178.5 68s-71.5 104.333 -71.5 177v11v0zM473.001 66.999h2.49805h3.5c38.667 2 74.334 18.833 107.001 50.5s49 71.5 49 119.5c0 52 -16.667 92 -50 120s-70.666 42 -111.999 42c-42 0 -78.833 -14 -110.5 -42s-47.5 -68 -47.5 -120
c0 -46.667 16.167 -86.667 48.5 -120s68.833 -50 109.5 -50v0z" />
    <glyph glyph-name="thorn" unicode="&#x44e;" horiz-adv-x="747" 
d="M222 250l-57.999 -0.000976562v-250h-88v250h-60v74h60v140h88v-140h74c17.333 47.333 47.166 84 89.499 110s89.5 39 141.5 39c66.667 0 125.834 -20.667 177.501 -62s77.5 -98.666 77.5 -171.999s-23.833 -132.5 -71.5 -177.5s-107.834 -67.5 -180.501 -67.5
c-71.333 0 -130.833 22.667 -178.5 68s-71.5 104.333 -71.5 177v11v0zM473.001 66.999h2.49805h3.5c38.667 2 74.334 18.833 107.001 50.5s49 71.5 49 119.5c0 52 -16.667 92 -50 120s-70.666 42 -111.999 42c-42 0 -78.833 -14 -110.5 -42s-47.5 -68 -47.5 -120
c0 -46.667 16.167 -86.667 48.5 -120s68.833 -50 109.5 -50v0z" />
    <glyph glyph-name="space" unicode="&#xff;" horiz-adv-x="473" 
d="M161 256c-30.667 9.33301 -53.6719 23 -69.0049 41s-23 37 -23 57v2.5v3.5c2 26 15.833 49.833 41.5 71.5s59.834 32.5 102.501 32.5h221v-464h-87v250h-67c-13.333 0 -25.666 -5 -36.999 -15s-21.666 -24 -30.999 -42l-114 -198l-97 10l126 217
c6.66699 10 12.167 17.333 16.5 22s8.83301 8 13.5 10c0.666992 0.666992 1.33398 1.16699 2.00098 1.5s1.33398 0.5 2.00098 0.5v0zM211.995 391c-16.667 0 -29.832 -3.16699 -39.499 -9.5s-15.167 -13.5 -16.5 -21.5c-0.666992 -0.666992 -1 -1.5 -1 -2.5v-2.5
c0 -8 4.16699 -15.167 12.5 -21.5s20.166 -9.5 35.499 -9.5h144v67h-135v0z" />
    <glyph glyph-name="space" unicode="&#x44f;" horiz-adv-x="473" 
d="M161 256c-30.667 9.33301 -53.6719 23 -69.0049 41s-23 37 -23 57v2.5v3.5c2 26 15.833 49.833 41.5 71.5s59.834 32.5 102.501 32.5h221v-464h-87v250h-67c-13.333 0 -25.666 -5 -36.999 -15s-21.666 -24 -30.999 -42l-114 -198l-97 10l126 217
c6.66699 10 12.167 17.333 16.5 22s8.83301 8 13.5 10c0.666992 0.666992 1.33398 1.16699 2.00098 1.5s1.33398 0.5 2.00098 0.5v0zM211.995 391c-16.667 0 -29.832 -3.16699 -39.499 -9.5s-15.167 -13.5 -16.5 -21.5c-0.666992 -0.666992 -1 -1.5 -1 -2.5v-2.5
c0 -8 4.16699 -15.167 12.5 -21.5s20.166 -9.5 35.499 -9.5h144v67h-135v0z" />
    <glyph glyph-name="amacron" unicode="&#x101;" 
 />
    <glyph glyph-name="OE" unicode="&#x152;" 
d="M307 208v-94l-279 152v102l279 151v-95l-179 -107l179 -109v0z" />
    <glyph glyph-name="glyph258" unicode="&#x153;" 
d="M307 208v-94l-279 152v102l279 151v-95l-179 -107l179 -109v0z" />
    <glyph glyph-name="perthousand" unicode="&#x160;" 
d="M307 208v-94l-279 152v102l279 151v-95l-179 -107l179 -109v0z" />
    <glyph glyph-name="eight" unicode="&#x161;" 
d="M307 208v-94l-279 152v102l279 151v-95l-179 -107l179 -109v0z" />
    <glyph glyph-name="greater" unicode="&#x192;" 
d="M307 208v-94l-279 152v102l279 151v-95l-179 -107l179 -109v0z" />
    <glyph glyph-name="glyph237" unicode="&#x2c6;" 
d="M307 208v-94l-279 152v102l279 151v-95l-179 -107l179 -109v0z" />
    <glyph glyph-name="seven" unicode="&#x2dc;" 
d="M307 208v-94l-279 152v102l279 151v-95l-179 -107l179 -109v0z" />
    <glyph glyph-name="dollar" unicode="&#x2013;" horiz-adv-x="595" 
d="M544 383v-69h-495v69h495v0z" />
    <glyph glyph-name="numbersign" unicode="&#x2014;" horiz-adv-x="737" 
d="M690 383v-69h-641v69h641v0z" />
    <glyph glyph-name="four" unicode="&#x2018;" horiz-adv-x="189" 
d="M136 514h-97l78 131h63l-44 -131v0z" />
    <glyph glyph-name="quoteright" unicode="&#x2019;" horiz-adv-x="208" 
d="M108 645h97l-78 -131h-63l44 131v0z" />
    <glyph glyph-name="parenleft" unicode="&#x201a;" 
d="M307 208v-94l-279 152v102l279 151v-95l-179 -107l179 -109v0z" />
    <glyph glyph-name="oe" unicode="&#x201c;" horiz-adv-x="321" 
d="M275 513h-97l78 131h63l-44 -131v0zM136 514h-97l78 131h63l-44 -131v0z" />
    <glyph glyph-name="B" unicode="&#x201d;" horiz-adv-x="359" 
d="M215 513l44 131h97l-77 -131h-64v0zM120 645h97l-77 -131h-64l44 131v0z" />
    <glyph glyph-name="quotedblbase" unicode="&#x201e;" 
d="M307 208v-94l-279 152v102l279 151v-95l-179 -107l179 -109v0z" />
    <glyph glyph-name="glyph233" unicode="&#x2020;" 
d="M307 208v-94l-279 152v102l279 151v-95l-179 -107l179 -109v0z" />
    <glyph glyph-name="glyph236" unicode="&#x2021;" 
d="M307 208v-94l-279 152v102l279 151v-95l-179 -107l179 -109v0z" />
    <glyph glyph-name="glyph257" unicode="&#x2022;" 
d="M307 208v-94l-279 152v102l279 151v-95l-179 -107l179 -109v0z" />
    <glyph glyph-name="glyph232" unicode="&#x2026;" 
d="M307 208v-94l-279 152v102l279 151v-95l-179 -107l179 -109v0z" />
    <glyph glyph-name="v" unicode="&#x2030;" 
d="M307 208v-94l-279 152v102l279 151v-95l-179 -107l179 -109v0z" />
    <glyph glyph-name="glyph243" unicode="&#x2039;" 
d="M307 208v-94l-279 152v102l279 151v-95l-179 -107l179 -109v0z" />
    <glyph glyph-name="less" unicode="&#x203a;" 
d="M307 208v-94l-279 152v102l279 151v-95l-179 -107l179 -109v0z" />
    <glyph glyph-name="six" unicode="&#x2122;" 
d="M307 208v-94l-279 152v102l279 151v-95l-179 -107l179 -109v0z" />
    <glyph glyph-name="periodcentered" unicode="&#x2219;" horiz-adv-x="171" 
d="M19 262c0 18 5.16699 33 15.5 45s26.5 18 48.5 18s38.167 -6 48.5 -18s15.5 -27 15.5 -45s-5.16699 -33.167 -15.5 -45.5s-26.5 -18.5 -48.5 -18.5s-38.167 6.16699 -48.5 18.5s-15.5 27.5 -15.5 45.5v0z" />
    <glyph glyph-name="glyph1" horiz-adv-x="0" 
 />
    <glyph glyph-name="glyph2" horiz-adv-x="416" 
 />
    <glyph glyph-name="s" 
 />
    <glyph glyph-name="backslash" 
 />
    <glyph glyph-name="nine" 
 />
    <glyph glyph-name="colon" 
 />
    <glyph glyph-name="Y" 
 />
    <glyph glyph-name="X" 
 />
    <glyph glyph-name="asciicircum" 
 />
    <glyph glyph-name="semicolon" 
 />
    <glyph glyph-name="equal" 
 />
    <glyph glyph-name="exclam" 
 />
    <glyph glyph-name="five" 
 />
    <glyph glyph-name="Q" 
 />
    <glyph glyph-name="quotedblright" 
 />
    <glyph glyph-name="hyphen" 
 />
    <glyph glyph-name="space" 
 />
    <glyph glyph-name="E" 
 />
    <glyph glyph-name="M" 
 />
    <glyph glyph-name="plus" 
 />
    <glyph glyph-name="glyph229" 
 />
    <glyph glyph-name="glyph230" 
 />
    <glyph glyph-name="glyph231" 
 />
    <glyph glyph-name="glyph234" 
 />
    <glyph glyph-name="glyph235" 
 />
    <glyph glyph-name="glyph238" 
 />
    <glyph glyph-name="glyph239" 
 />
    <glyph glyph-name="glyph240" 
 />
    <glyph glyph-name="glyph241" 
 />
    <glyph glyph-name="glyph242" 
 />
    <glyph glyph-name="glyph244" 
 />
    <glyph glyph-name="glyph245" 
 />
    <glyph glyph-name="glyph246" 
 />
    <glyph glyph-name="glyph247" 
 />
    <glyph glyph-name="glyph248" 
 />
    <glyph glyph-name="glyph249" 
 />
    <glyph glyph-name="glyph250" 
 />
    <glyph glyph-name="glyph251" 
 />
    <glyph glyph-name="glyph252" 
 />
    <glyph glyph-name="glyph253" 
 />
    <glyph glyph-name="glyph254" 
 />
    <glyph glyph-name="glyph255" 
 />
    <glyph glyph-name="glyph256" 
 />
    <glyph glyph-name="glyph267" 
 />
    <glyph glyph-name="glyph268" 
 />
    <glyph glyph-name="glyph269" 
 />
    <glyph glyph-name="glyph270" 
 />
    <glyph glyph-name="glyph271" 
 />
    <glyph glyph-name="glyph272" 
 />
    <glyph glyph-name="glyph273" 
 />
    <glyph glyph-name="glyph274" 
 />
    <glyph glyph-name="glyph275" 
 />
    <glyph glyph-name="glyph276" 
 />
    <glyph glyph-name="glyph277" 
 />
    <glyph glyph-name="glyph278" 
 />
    <glyph glyph-name="glyph279" 
 />
    <glyph glyph-name="glyph280" 
 />
    <glyph glyph-name="glyph281" 
 />
    <glyph glyph-name="glyph282" 
 />
    <glyph glyph-name="glyph283" 
 />
    <glyph glyph-name="glyph284" 
 />
    <glyph glyph-name="glyph285" 
 />
    <glyph glyph-name="glyph286" 
 />
    <glyph glyph-name="glyph287" 
 />
    <glyph glyph-name="glyph288" 
 />
    <glyph glyph-name="glyph289" 
 />
    <glyph glyph-name="glyph290" 
 />
    <glyph glyph-name="glyph291" 
 />
    <glyph glyph-name="glyph292" 
 />
    <glyph glyph-name="glyph293" 
 />
    <glyph glyph-name="glyph294" 
 />
    <glyph glyph-name="glyph295" 
 />
    <glyph glyph-name="glyph296" 
 />
    <glyph glyph-name="glyph297" 
 />
    <glyph glyph-name="glyph298" 
 />
    <glyph glyph-name="glyph299" 
 />
    <glyph glyph-name="glyph300" 
 />
    <glyph glyph-name="glyph301" 
 />
    <glyph glyph-name="glyph302" 
 />
    <glyph glyph-name="glyph303" 
 />
    <glyph glyph-name="glyph304" 
 />
    <glyph glyph-name="glyph305" 
 />
    <glyph glyph-name="glyph306" 
 />
    <glyph glyph-name="glyph307" 
 />
    <glyph glyph-name="glyph308" 
 />
    <glyph glyph-name="glyph309" 
 />
    <glyph glyph-name="glyph310" 
 />
    <glyph glyph-name="glyph311" 
 />
    <glyph glyph-name="glyph312" 
 />
    <glyph glyph-name="glyph313" 
 />
    <glyph glyph-name="glyph314" 
 />
    <glyph glyph-name="glyph315" 
 />
    <glyph glyph-name="glyph316" 
 />
    <glyph glyph-name="glyph317" 
 />
    <glyph glyph-name="glyph318" 
 />
    <glyph glyph-name="glyph319" 
 />
    <glyph glyph-name="glyph320" 
 />
    <glyph glyph-name="glyph321" 
 />
    <glyph glyph-name="glyph322" 
 />
    <glyph glyph-name="glyph323" 
 />
    <glyph glyph-name="glyph324" 
 />
    <glyph glyph-name="glyph325" 
 />
    <glyph glyph-name="glyph326" 
 />
    <glyph glyph-name="glyph327" 
 />
    <glyph glyph-name="glyph328" 
 />
    <glyph glyph-name="glyph329" 
 />
    <glyph glyph-name="glyph330" 
 />
    <glyph glyph-name="glyph331" 
 />
    <glyph glyph-name="glyph332" 
 />
    <glyph glyph-name="glyph333" 
 />
    <glyph glyph-name="glyph334" 
 />
    <glyph glyph-name="glyph335" 
 />
    <glyph glyph-name="glyph336" 
 />
    <glyph glyph-name="glyph337" 
 />
    <glyph glyph-name="glyph338" 
 />
    <glyph glyph-name="glyph339" 
 />
    <glyph glyph-name="glyph340" 
 />
    <glyph glyph-name="glyph341" 
 />
    <glyph glyph-name="glyph342" 
 />
    <glyph glyph-name="glyph343" 
 />
    <glyph glyph-name="glyph344" 
 />
    <glyph glyph-name="glyph345" 
 />
    <glyph glyph-name="glyph346" 
 />
    <glyph glyph-name="glyph347" 
 />
    <glyph glyph-name="glyph348" 
 />
    <glyph glyph-name="glyph349" 
 />
    <glyph glyph-name="glyph350" 
 />
    <glyph glyph-name="glyph351" 
 />
    <glyph glyph-name="glyph352" 
 />
    <glyph glyph-name="glyph353" 
 />
    <glyph glyph-name="glyph354" 
 />
    <glyph glyph-name="glyph355" 
 />
    <glyph glyph-name="glyph356" 
 />
    <glyph glyph-name="glyph357" 
 />
    <glyph glyph-name="glyph358" 
 />
    <glyph glyph-name="glyph359" 
 />
    <glyph glyph-name="glyph360" 
 />
    <glyph glyph-name="glyph361" 
 />
    <glyph glyph-name="glyph362" 
 />
    <glyph glyph-name="glyph363" 
 />
    <glyph glyph-name="glyph364" 
 />
    <glyph glyph-name="glyph365" 
 />
    <glyph glyph-name="glyph366" 
 />
    <glyph glyph-name="glyph367" 
 />
    <glyph glyph-name="glyph368" 
 />
    <glyph glyph-name="glyph369" 
 />
    <glyph glyph-name="glyph370" 
 />
    <glyph glyph-name="glyph371" 
 />
    <glyph glyph-name="glyph372" 
 />
    <glyph glyph-name="glyph373" 
 />
    <glyph glyph-name="glyph374" 
 />
    <glyph glyph-name="glyph375" 
 />
    <glyph glyph-name="glyph376" 
 />
    <glyph glyph-name="glyph377" 
 />
    <glyph glyph-name="glyph378" 
 />
    <glyph glyph-name="glyph379" 
 />
    <glyph glyph-name="glyph380" 
 />
    <glyph glyph-name="glyph381" 
 />
    <glyph glyph-name="glyph382" 
 />
    <glyph glyph-name="glyph383" 
 />
    <glyph glyph-name="glyph384" 
 />
    <glyph glyph-name="glyph385" 
 />
    <glyph glyph-name="glyph386" 
 />
    <glyph glyph-name="glyph387" 
 />
    <glyph glyph-name="glyph388" 
 />
    <glyph glyph-name="glyph389" 
 />
    <glyph glyph-name="glyph390" 
 />
    <glyph glyph-name="glyph391" 
 />
    <glyph glyph-name="glyph392" 
 />
    <glyph glyph-name="glyph393" 
 />
    <glyph glyph-name="glyph394" 
 />
    <glyph glyph-name="glyph395" 
 />
    <glyph glyph-name="glyph396" 
 />
    <glyph glyph-name="glyph397" 
 />
    <glyph glyph-name="glyph398" 
 />
    <glyph glyph-name="glyph399" 
 />
    <glyph glyph-name="glyph400" 
 />
    <glyph glyph-name="glyph401" 
 />
    <glyph glyph-name="glyph402" 
 />
    <glyph glyph-name="glyph403" 
 />
    <glyph glyph-name="glyph404" 
 />
    <glyph glyph-name="glyph405" 
 />
    <glyph glyph-name="glyph406" 
 />
    <glyph glyph-name="glyph407" 
 />
    <glyph glyph-name="glyph408" 
 />
    <glyph glyph-name="glyph409" 
 />
    <glyph glyph-name="glyph410" 
 />
    <glyph glyph-name="glyph411" 
 />
    <glyph glyph-name="glyph412" 
 />
    <glyph glyph-name="glyph413" 
 />
    <glyph glyph-name="glyph414" 
 />
    <glyph glyph-name="glyph415" 
 />
    <glyph glyph-name="glyph416" 
 />
    <glyph glyph-name="glyph417" 
 />
    <glyph glyph-name="glyph418" 
 />
    <glyph glyph-name="glyph419" 
 />
    <glyph glyph-name="glyph420" 
 />
    <glyph glyph-name="glyph421" 
 />
    <glyph glyph-name="glyph422" 
 />
    <glyph glyph-name="glyph423" 
 />
    <glyph glyph-name="glyph424" 
 />
    <glyph glyph-name="glyph425" 
 />
    <glyph glyph-name="glyph426" 
 />
    <glyph glyph-name="glyph427" 
 />
    <glyph glyph-name="glyph428" 
 />
    <glyph glyph-name="glyph429" 
 />
    <glyph glyph-name="glyph430" 
 />
    <glyph glyph-name="glyph431" 
 />
    <glyph glyph-name="glyph432" 
 />
    <glyph glyph-name="glyph433" 
 />
    <glyph glyph-name="glyph434" 
 />
    <glyph glyph-name="glyph435" 
 />
    <glyph glyph-name="glyph436" 
 />
    <glyph glyph-name="glyph437" 
 />
    <glyph glyph-name="glyph438" 
 />
    <glyph glyph-name="glyph439" 
 />
    <glyph glyph-name="glyph440" 
 />
    <glyph glyph-name="glyph441" 
 />
    </font>
</defs>
</svg>
